<?xml version="1.0" encoding="UTF-8" standalone="no"?>
<!DOCTYPE svg PUBLIC "-//W3C//DTD SVG 1.1//EN"
 "http://www.w3.org/Graphics/SVG/1.1/DTD/svg11.dtd">
<!-- Generated by graphviz version 2.47.0 (20210316.0004)
 -->
<!-- Title: dependencies Pages: 1 -->
<svg width="504pt" height="284pt"
 viewBox="0.00 0.00 504.00 284.00" xmlns="http://www.w3.org/2000/svg" xmlns:xlink="http://www.w3.org/1999/xlink">
<g id="graph0" class="graph" transform="scale(1 1) rotate(0) translate(4 280)">
<title>dependencies</title>
<polygon fill="white" stroke="transparent" points="-4,4 -4,-280 500,-280 500,4 -4,4"/>
<text text-anchor="start" x="227.01" y="-42.4" font-family="Times-12" font-weight="bold" font-size="14.00">Legend</text>
<polygon fill="#ffffb3" stroke="transparent" points="14,-10 14,-30 34,-30 34,-10 14,-10"/>
<text text-anchor="start" x="37.63" y="-15.4" font-family="Times-12" font-size="14.00"> &#160;Declarations</text>
<polygon fill="#8dd3c7" stroke="transparent" points="127,-10 127,-30 147,-30 147,-10 127,-10"/>
<text text-anchor="start" x="150.73" y="-15.4" font-family="Times-12" font-size="14.00"> &#160;Module</text>
<polygon fill="#80b1d3" stroke="transparent" points="213,-10 213,-30 233,-30 233,-10 213,-10"/>
<text text-anchor="start" x="236.78" y="-15.4" font-family="Times-12" font-size="14.00"> &#160;Bootstrap</text>
<polygon fill="#fdb462" stroke="transparent" points="310,-10 310,-30 330,-30 330,-10 310,-10"/>
<text text-anchor="start" x="333.67" y="-15.4" font-family="Times-12" font-size="14.00"> &#160;Providers</text>
<polygon fill="#fb8072" stroke="transparent" points="406,-10 406,-30 426,-30 426,-10 406,-10"/>
<text text-anchor="start" x="429.73" y="-15.4" font-family="Times-12" font-size="14.00"> &#160;Exports</text>
<g id="clust1" class="cluster">
<title>cluster_SharedModule</title>
<polygon fill="none" stroke="black" stroke-dasharray="1,5" points="86.5,-70 86.5,-268 409.5,-268 409.5,-70 86.5,-70"/>
</g>
<g id="clust6" class="cluster">
<title>cluster_SharedModule_exports</title>
<polygon fill="none" stroke="black" points="94.5,-208 94.5,-260 401.5,-260 401.5,-208 94.5,-208"/>
</g>
<g id="clust2" class="cluster">
<title>cluster_SharedModule_declarations</title>
<polygon fill="none" stroke="black" points="98.5,-78 98.5,-130 398.5,-130 398.5,-78 98.5,-78"/>
</g>
<!-- NavigationComponent -->
<g id="node1" class="node">
<title>NavigationComponent</title>
<polygon fill="#ffffb3" stroke="black" points="390.04,-122 246.96,-122 246.96,-86 390.04,-86 390.04,-122"/>
<text text-anchor="middle" x="318.5" y="-99.8" font-family="Times,serif" font-size="14.00">NavigationComponent</text>
</g>
<!-- SharedModule -->
<g id="node3" class="node">
<title>SharedModule</title>
<polygon fill="#8dd3c7" stroke="black" points="217.92,-187 214.92,-191 193.92,-191 190.92,-187 119.08,-187 119.08,-151 217.92,-151 217.92,-187"/>
<text text-anchor="middle" x="168.5" y="-164.8" font-family="Times,serif" font-size="14.00">SharedModule</text>
</g>
<!-- NavigationComponent&#45;&gt;SharedModule -->
<g id="edge1" class="edge">
<title>NavigationComponent&#45;&gt;SharedModule</title>
<path fill="none" stroke="black" d="M342.42,-122.02C342.42,-139.37 342.42,-163 342.42,-163 342.42,-163 227.87,-163 227.87,-163"/>
<polygon fill="black" stroke="black" points="227.87,-159.5 217.87,-163 227.87,-166.5 227.87,-159.5"/>
</g>
<!-- TrimDecimalsPipe -->
<g id="node2" class="node">
<title>TrimDecimalsPipe</title>
<polygon fill="#ffffb3" stroke="black" points="228.25,-122 106.75,-122 106.75,-86 228.25,-86 228.25,-122"/>
<text text-anchor="middle" x="167.5" y="-99.8" font-family="Times,serif" font-size="14.00">TrimDecimalsPipe</text>
</g>
<!-- TrimDecimalsPipe&#45;&gt;SharedModule -->
<g id="edge2" class="edge">
<title>TrimDecimalsPipe&#45;&gt;SharedModule</title>
<path fill="none" stroke="black" d="M168.5,-122.11C168.5,-122.11 168.5,-140.99 168.5,-140.99"/>
<polygon fill="black" stroke="black" points="165,-140.99 168.5,-150.99 172,-140.99 165,-140.99"/>
</g>
<!-- NavigationComponent  -->
<g id="node4" class="node">
<title>NavigationComponent </title>
<polygon fill="#fb8072" stroke="black" points="393.04,-252 245.96,-252 245.96,-216 393.04,-216 393.04,-252"/>
<text text-anchor="middle" x="319.5" y="-229.8" font-family="Times,serif" font-size="14.00">NavigationComponent </text>
</g>
<!-- SharedModule&#45;&gt;NavigationComponent  -->
<g id="edge3" class="edge">
<title>SharedModule&#45;&gt;NavigationComponent </title>
<path fill="none" stroke="black" stroke-dasharray="5,2" d="M217.97,-175C253.29,-175 294.58,-175 294.58,-175 294.58,-175 294.58,-205.98 294.58,-205.98"/>
<polygon fill="black" stroke="black" points="291.08,-205.98 294.58,-215.98 298.08,-205.98 291.08,-205.98"/>
</g>
<!-- TrimDecimalsPipe  -->
<g id="node5" class="node">
<title>TrimDecimalsPipe </title>
<polygon fill="#fb8072" stroke="black" points="228.25,-252 102.75,-252 102.75,-216 228.25,-216 228.25,-252"/>
<text text-anchor="middle" x="165.5" y="-229.8" font-family="Times,serif" font-size="14.00">TrimDecimalsPipe </text>
</g>
<!-- SharedModule&#45;&gt;TrimDecimalsPipe  -->
<g id="edge4" class="edge">
<title>SharedModule&#45;&gt;TrimDecimalsPipe </title>
<path fill="none" stroke="black" stroke-dasharray="5,2" d="M168.5,-187.11C168.5,-187.11 168.5,-205.99 168.5,-205.99"/>
<polygon fill="black" stroke="black" points="165,-205.99 168.5,-215.99 172,-205.99 165,-205.99"/>
</g>
</g>
</svg>
