<?xml version="1.0" encoding="UTF-8" standalone="no"?>
<!DOCTYPE svg PUBLIC "-//W3C//DTD SVG 1.1//EN"
 "http://www.w3.org/Graphics/SVG/1.1/DTD/svg11.dtd">
<!-- Generated by graphviz version 2.47.0 (20210316.0004)
 -->
<!-- Title: dependencies Pages: 1 -->
<svg width="504pt" height="284pt"
 viewBox="0.00 0.00 504.00 284.00" xmlns="http://www.w3.org/2000/svg" xmlns:xlink="http://www.w3.org/1999/xlink">
<g id="graph0" class="graph" transform="scale(1 1) rotate(0) translate(4 280)">
<title>dependencies</title>
<polygon fill="white" stroke="transparent" points="-4,4 -4,-280 500,-280 500,4 -4,4"/>
<text text-anchor="start" x="227.01" y="-42.4" font-family="Times-12" font-weight="bold" font-size="14.00">Legend</text>
<polygon fill="#ffffb3" stroke="transparent" points="14,-10 14,-30 34,-30 34,-10 14,-10"/>
<text text-anchor="start" x="37.63" y="-15.4" font-family="Times-12" font-size="14.00"> &#160;Declarations</text>
<polygon fill="#8dd3c7" stroke="transparent" points="127,-10 127,-30 147,-30 147,-10 127,-10"/>
<text text-anchor="start" x="150.73" y="-15.4" font-family="Times-12" font-size="14.00"> &#160;Module</text>
<polygon fill="#80b1d3" stroke="transparent" points="213,-10 213,-30 233,-30 233,-10 213,-10"/>
<text text-anchor="start" x="236.78" y="-15.4" font-family="Times-12" font-size="14.00"> &#160;Bootstrap</text>
<polygon fill="#fdb462" stroke="transparent" points="310,-10 310,-30 330,-30 330,-10 310,-10"/>
<text text-anchor="start" x="333.67" y="-15.4" font-family="Times-12" font-size="14.00"> &#160;Providers</text>
<polygon fill="#fb8072" stroke="transparent" points="406,-10 406,-30 426,-30 426,-10 406,-10"/>
<text text-anchor="start" x="429.73" y="-15.4" font-family="Times-12" font-size="14.00"> &#160;Exports</text>
<g id="clust1" class="cluster">
<title>cluster_SharedModule</title>
<polygon fill="none" stroke="black" stroke-dasharray="1,5" points="17,-70 17,-268 479,-268 479,-70 17,-70"/>
</g>
<g id="clust2" class="cluster">
<title>cluster_SharedModule_declarations</title>
<polygon fill="none" stroke="black" points="25,-78 25,-130 471,-130 471,-78 25,-78"/>
</g>
<g id="clust7" class="cluster">
<title>cluster_SharedModule_exports</title>
<polygon fill="none" stroke="black" points="95,-208 95,-260 402,-260 402,-208 95,-208"/>
</g>
<!-- NavigationComponent -->
<g id="node1" class="node">
<title>NavigationComponent</title>
<polygon fill="#ffffb3" stroke="black" points="462.54,-122 319.46,-122 319.46,-86 462.54,-86 462.54,-122"/>
<text text-anchor="middle" x="391" y="-99.8" font-family="Times,serif" font-size="14.00">NavigationComponent</text>
</g>
<!-- SharedModule -->
<g id="node4" class="node">
<title>SharedModule</title>
<polygon fill="#8dd3c7" stroke="black" points="286.42,-187 283.42,-191 262.42,-191 259.42,-187 187.58,-187 187.58,-151 286.42,-151 286.42,-187"/>
<text text-anchor="middle" x="237" y="-164.8" font-family="Times,serif" font-size="14.00">SharedModule</text>
</g>
<!-- NavigationComponent&#45;&gt;SharedModule -->
<g id="edge1" class="edge">
<title>NavigationComponent&#45;&gt;SharedModule</title>
<path fill="none" stroke="black" d="M356.38,-122.11C356.38,-141.34 356.38,-169 356.38,-169 356.38,-169 296.24,-169 296.24,-169"/>
<polygon fill="black" stroke="black" points="296.24,-165.5 286.24,-169 296.24,-172.5 296.24,-165.5"/>
</g>
<!-- RedirectComponent -->
<g id="node2" class="node">
<title>RedirectComponent</title>
<polygon fill="#ffffb3" stroke="black" points="301.25,-122 172.75,-122 172.75,-86 301.25,-86 301.25,-122"/>
<text text-anchor="middle" x="237" y="-99.8" font-family="Times,serif" font-size="14.00">RedirectComponent</text>
</g>
<!-- RedirectComponent&#45;&gt;SharedModule -->
<g id="edge2" class="edge">
<title>RedirectComponent&#45;&gt;SharedModule</title>
<path fill="none" stroke="black" d="M237,-122.11C237,-122.11 237,-140.99 237,-140.99"/>
<polygon fill="black" stroke="black" points="233.5,-140.99 237,-150.99 240.5,-140.99 233.5,-140.99"/>
</g>
<!-- TrimDecimalsPipe -->
<g id="node3" class="node">
<title>TrimDecimalsPipe</title>
<polygon fill="#ffffb3" stroke="black" points="154.75,-122 33.25,-122 33.25,-86 154.75,-86 154.75,-122"/>
<text text-anchor="middle" x="94" y="-99.8" font-family="Times,serif" font-size="14.00">TrimDecimalsPipe</text>
</g>
<!-- TrimDecimalsPipe&#45;&gt;SharedModule -->
<g id="edge3" class="edge">
<title>TrimDecimalsPipe&#45;&gt;SharedModule</title>
<path fill="none" stroke="black" d="M129.12,-122.11C129.12,-141.34 129.12,-169 129.12,-169 129.12,-169 177.48,-169 177.48,-169"/>
<polygon fill="black" stroke="black" points="177.48,-172.5 187.48,-169 177.48,-165.5 177.48,-172.5"/>
</g>
<!-- NavigationComponent  -->
<g id="node5" class="node">
<title>NavigationComponent </title>
<polygon fill="#fb8072" stroke="black" points="393.54,-252 246.46,-252 246.46,-216 393.54,-216 393.54,-252"/>
<text text-anchor="middle" x="320" y="-229.8" font-family="Times,serif" font-size="14.00">NavigationComponent </text>
</g>
<!-- SharedModule&#45;&gt;NavigationComponent  -->
<g id="edge4" class="edge">
<title>SharedModule&#45;&gt;NavigationComponent </title>
<path fill="none" stroke="black" stroke-dasharray="5,2" d="M266.35,-187.11C266.35,-187.11 266.35,-205.99 266.35,-205.99"/>
<polygon fill="black" stroke="black" points="262.85,-205.99 266.35,-215.99 269.85,-205.99 262.85,-205.99"/>
</g>
<!-- TrimDecimalsPipe  -->
<g id="node6" class="node">
<title>TrimDecimalsPipe </title>
<polygon fill="#fb8072" stroke="black" points="228.75,-252 103.25,-252 103.25,-216 228.75,-216 228.75,-252"/>
<text text-anchor="middle" x="166" y="-229.8" font-family="Times,serif" font-size="14.00">TrimDecimalsPipe </text>
</g>
<!-- SharedModule&#45;&gt;TrimDecimalsPipe  -->
<g id="edge5" class="edge">
<title>SharedModule&#45;&gt;TrimDecimalsPipe </title>
<path fill="none" stroke="black" stroke-dasharray="5,2" d="M208.21,-187.11C208.21,-187.11 208.21,-205.99 208.21,-205.99"/>
<polygon fill="black" stroke="black" points="204.71,-205.99 208.21,-215.99 211.71,-205.99 204.71,-205.99"/>
</g>
</g>
</svg>
