<?xml version="1.0" encoding="UTF-8" standalone="no"?>
<!DOCTYPE svg PUBLIC "-//W3C//DTD SVG 1.1//EN"
 "http://www.w3.org/Graphics/SVG/1.1/DTD/svg11.dtd">
<!-- Generated by graphviz version 2.47.0 (20210316.0004)
 -->
<!-- Title: dependencies Pages: 1 -->
<svg width="763pt" height="211pt"
 viewBox="0.00 0.00 763.00 211.00" xmlns="http://www.w3.org/2000/svg" xmlns:xlink="http://www.w3.org/1999/xlink">
<g id="graph0" class="graph" transform="scale(1 1) rotate(0) translate(4 207)">
<title>dependencies</title>
<polygon fill="white" stroke="transparent" points="-4,4 -4,-207 759,-207 759,4 -4,4"/>
<text text-anchor="start" x="356.51" y="-42.4" font-family="Times-12" font-weight="bold" font-size="14.00">Legend</text>
<polygon fill="#ffffb3" stroke="transparent" points="143.5,-10 143.5,-30 163.5,-30 163.5,-10 143.5,-10"/>
<text text-anchor="start" x="167.13" y="-15.4" font-family="Times-12" font-size="14.00"> &#160;Declarations</text>
<polygon fill="#8dd3c7" stroke="transparent" points="256.5,-10 256.5,-30 276.5,-30 276.5,-10 256.5,-10"/>
<text text-anchor="start" x="280.23" y="-15.4" font-family="Times-12" font-size="14.00"> &#160;Module</text>
<polygon fill="#80b1d3" stroke="transparent" points="342.5,-10 342.5,-30 362.5,-30 362.5,-10 342.5,-10"/>
<text text-anchor="start" x="366.28" y="-15.4" font-family="Times-12" font-size="14.00"> &#160;Bootstrap</text>
<polygon fill="#fdb462" stroke="transparent" points="439.5,-10 439.5,-30 459.5,-30 459.5,-10 439.5,-10"/>
<text text-anchor="start" x="463.17" y="-15.4" font-family="Times-12" font-size="14.00"> &#160;Providers</text>
<polygon fill="#fb8072" stroke="transparent" points="535.5,-10 535.5,-30 555.5,-30 555.5,-10 535.5,-10"/>
<text text-anchor="start" x="559.23" y="-15.4" font-family="Times-12" font-size="14.00"> &#160;Exports</text>
<g id="clust1" class="cluster">
<title>cluster_ProfileModule</title>
<polygon fill="none" stroke="black" stroke-dasharray="1,5" points="8,-70 8,-195 747,-195 747,-70 8,-70"/>
</g>
<g id="clust6" class="cluster">
<title>cluster_ProfileModule_imports</title>
<polygon fill="none" stroke="black" points="464,-78 464,-130 739,-130 739,-78 464,-78"/>
</g>
<g id="clust2" class="cluster">
<title>cluster_ProfileModule_declarations</title>
<polygon fill="none" stroke="black" points="16,-78 16,-130 456,-130 456,-78 16,-78"/>
</g>
<!-- ProfileComponent -->
<g id="node1" class="node">
<title>ProfileComponent</title>
<polygon fill="#ffffb3" stroke="black" points="447.93,-122 328.07,-122 328.07,-86 447.93,-86 447.93,-122"/>
<text text-anchor="middle" x="388" y="-99.8" font-family="Times,serif" font-size="14.00">ProfileComponent</text>
</g>
<!-- ProfileModule -->
<g id="node4" class="node">
<title>ProfileModule</title>
<polygon fill="#8dd3c7" stroke="black" points="436.65,-187 433.65,-191 412.65,-191 409.65,-187 339.35,-187 339.35,-151 436.65,-151 436.65,-187"/>
<text text-anchor="middle" x="388" y="-164.8" font-family="Times,serif" font-size="14.00">ProfileModule</text>
</g>
<!-- ProfileComponent&#45;&gt;ProfileModule -->
<g id="edge1" class="edge">
<title>ProfileComponent&#45;&gt;ProfileModule</title>
<path fill="none" stroke="black" d="M388,-122.11C388,-122.11 388,-140.99 388,-140.99"/>
<polygon fill="black" stroke="black" points="384.5,-140.99 388,-150.99 391.5,-140.99 384.5,-140.99"/>
</g>
<!-- StatsComponent -->
<g id="node2" class="node">
<title>StatsComponent</title>
<polygon fill="#ffffb3" stroke="black" points="310.06,-122 201.94,-122 201.94,-86 310.06,-86 310.06,-122"/>
<text text-anchor="middle" x="256" y="-99.8" font-family="Times,serif" font-size="14.00">StatsComponent</text>
</g>
<!-- StatsComponent&#45;&gt;ProfileModule -->
<g id="edge2" class="edge">
<title>StatsComponent&#45;&gt;ProfileModule</title>
<path fill="none" stroke="black" d="M256,-122.02C256,-139.37 256,-163 256,-163 256,-163 329.22,-163 329.22,-163"/>
<polygon fill="black" stroke="black" points="329.22,-166.5 339.22,-163 329.22,-159.5 329.22,-166.5"/>
</g>
<!-- UpdateProfileComponent -->
<g id="node3" class="node">
<title>UpdateProfileComponent</title>
<polygon fill="#ffffb3" stroke="black" points="183.86,-122 24.14,-122 24.14,-86 183.86,-86 183.86,-122"/>
<text text-anchor="middle" x="104" y="-99.8" font-family="Times,serif" font-size="14.00">UpdateProfileComponent</text>
</g>
<!-- UpdateProfileComponent&#45;&gt;ProfileModule -->
<g id="edge3" class="edge">
<title>UpdateProfileComponent&#45;&gt;ProfileModule</title>
<path fill="none" stroke="black" d="M104,-122.28C104,-143.32 104,-175 104,-175 104,-175 329.18,-175 329.18,-175"/>
<polygon fill="black" stroke="black" points="329.18,-178.5 339.18,-175 329.18,-171.5 329.18,-178.5"/>
</g>
<!-- ProfileRoutingModule -->
<g id="node5" class="node">
<title>ProfileRoutingModule</title>
<polygon fill="#8dd3c7" stroke="black" points="731.27,-122 728.27,-126 707.27,-126 704.27,-122 588.73,-122 588.73,-86 731.27,-86 731.27,-122"/>
<text text-anchor="middle" x="660" y="-99.8" font-family="Times,serif" font-size="14.00">ProfileRoutingModule</text>
</g>
<!-- ProfileRoutingModule&#45;&gt;ProfileModule -->
<g id="edge4" class="edge">
<title>ProfileRoutingModule&#45;&gt;ProfileModule</title>
<path fill="none" stroke="black" d="M660,-122.28C660,-143.32 660,-175 660,-175 660,-175 446.94,-175 446.94,-175"/>
<polygon fill="black" stroke="black" points="446.94,-171.5 436.94,-175 446.94,-178.5 446.94,-171.5"/>
</g>
<!-- SharedModule -->
<g id="node6" class="node">
<title>SharedModule</title>
<polygon fill="#8dd3c7" stroke="black" points="570.42,-122 567.42,-126 546.42,-126 543.42,-122 471.58,-122 471.58,-86 570.42,-86 570.42,-122"/>
<text text-anchor="middle" x="521" y="-99.8" font-family="Times,serif" font-size="14.00">SharedModule</text>
</g>
<!-- SharedModule&#45;&gt;ProfileModule -->
<g id="edge5" class="edge">
<title>SharedModule&#45;&gt;ProfileModule</title>
<path fill="none" stroke="black" d="M521,-122.02C521,-139.37 521,-163 521,-163 521,-163 446.77,-163 446.77,-163"/>
<polygon fill="black" stroke="black" points="446.77,-159.5 436.77,-163 446.77,-166.5 446.77,-159.5"/>
</g>
</g>
</svg>
