<?xml version="1.0" encoding="UTF-8" standalone="no"?>
<!DOCTYPE svg PUBLIC "-//W3C//DTD SVG 1.1//EN"
 "http://www.w3.org/Graphics/SVG/1.1/DTD/svg11.dtd">
<!-- Generated by graphviz version 2.47.0 (20210316.0004)
 -->
<!-- Title: dependencies Pages: 1 -->
<svg width="763pt" height="211pt"
 viewBox="0.00 0.00 763.00 211.00" xmlns="http://www.w3.org/2000/svg" xmlns:xlink="http://www.w3.org/1999/xlink">
<g id="graph0" class="graph" transform="scale(1 1) rotate(0) translate(4 207)">
<title>dependencies</title>
<polygon fill="white" stroke="transparent" points="-4,4 -4,-207 759,-207 759,4 -4,4"/>
<text text-anchor="start" x="356.51" y="-42.4" font-family="Times-12" font-weight="bold" font-size="14.00">Legend</text>
<polygon fill="#ffffb3" stroke="transparent" points="143.5,-10 143.5,-30 163.5,-30 163.5,-10 143.5,-10"/>
<text text-anchor="start" x="167.13" y="-15.4" font-family="Times-12" font-size="14.00"> &#160;Declarations</text>
<polygon fill="#8dd3c7" stroke="transparent" points="256.5,-10 256.5,-30 276.5,-30 276.5,-10 256.5,-10"/>
<text text-anchor="start" x="280.23" y="-15.4" font-family="Times-12" font-size="14.00"> &#160;Module</text>
<polygon fill="#80b1d3" stroke="transparent" points="342.5,-10 342.5,-30 362.5,-30 362.5,-10 342.5,-10"/>
<text text-anchor="start" x="366.28" y="-15.4" font-family="Times-12" font-size="14.00"> &#160;Bootstrap</text>
<polygon fill="#fdb462" stroke="transparent" points="439.5,-10 439.5,-30 459.5,-30 459.5,-10 439.5,-10"/>
<text text-anchor="start" x="463.17" y="-15.4" font-family="Times-12" font-size="14.00"> &#160;Providers</text>
<polygon fill="#fb8072" stroke="transparent" points="535.5,-10 535.5,-30 555.5,-30 555.5,-10 535.5,-10"/>
<text text-anchor="start" x="559.23" y="-15.4" font-family="Times-12" font-size="14.00"> &#160;Exports</text>
<g id="clust1" class="cluster">
<title>cluster_ProfileModule</title>
<polygon fill="none" stroke="black" stroke-dasharray="1,5" points="8,-70 8,-195 747,-195 747,-70 8,-70"/>
</g>
<g id="clust2" class="cluster">
<title>cluster_ProfileModule_declarations</title>
<polygon fill="none" stroke="black" points="299,-78 299,-130 739,-130 739,-78 299,-78"/>
</g>
<g id="clust6" class="cluster">
<title>cluster_ProfileModule_imports</title>
<polygon fill="none" stroke="black" points="16,-78 16,-130 291,-130 291,-78 16,-78"/>
</g>
<!-- ProfileComponent -->
<g id="node1" class="node">
<title>ProfileComponent</title>
<polygon fill="#ffffb3" stroke="black" points="730.93,-122 611.07,-122 611.07,-86 730.93,-86 730.93,-122"/>
<text text-anchor="middle" x="671" y="-99.8" font-family="Times,serif" font-size="14.00">ProfileComponent</text>
</g>
<!-- ProfileModule -->
<g id="node4" class="node">
<title>ProfileModule</title>
<polygon fill="#8dd3c7" stroke="black" points="435.65,-187 432.65,-191 411.65,-191 408.65,-187 338.35,-187 338.35,-151 435.65,-151 435.65,-187"/>
<text text-anchor="middle" x="387" y="-164.8" font-family="Times,serif" font-size="14.00">ProfileModule</text>
</g>
<!-- ProfileComponent&#45;&gt;ProfileModule -->
<g id="edge1" class="edge">
<title>ProfileComponent&#45;&gt;ProfileModule</title>
<path fill="none" stroke="black" d="M671,-122.28C671,-143.32 671,-175 671,-175 671,-175 445.82,-175 445.82,-175"/>
<polygon fill="black" stroke="black" points="445.82,-171.5 435.82,-175 445.82,-178.5 445.82,-171.5"/>
</g>
<!-- StatsComponent -->
<g id="node2" class="node">
<title>StatsComponent</title>
<polygon fill="#ffffb3" stroke="black" points="593.06,-122 484.94,-122 484.94,-86 593.06,-86 593.06,-122"/>
<text text-anchor="middle" x="539" y="-99.8" font-family="Times,serif" font-size="14.00">StatsComponent</text>
</g>
<!-- StatsComponent&#45;&gt;ProfileModule -->
<g id="edge2" class="edge">
<title>StatsComponent&#45;&gt;ProfileModule</title>
<path fill="none" stroke="black" d="M539,-122.02C539,-139.37 539,-163 539,-163 539,-163 445.93,-163 445.93,-163"/>
<polygon fill="black" stroke="black" points="445.93,-159.5 435.93,-163 445.93,-166.5 445.93,-159.5"/>
</g>
<!-- UpdateProfileComponent -->
<g id="node3" class="node">
<title>UpdateProfileComponent</title>
<polygon fill="#ffffb3" stroke="black" points="466.86,-122 307.14,-122 307.14,-86 466.86,-86 466.86,-122"/>
<text text-anchor="middle" x="387" y="-99.8" font-family="Times,serif" font-size="14.00">UpdateProfileComponent</text>
</g>
<!-- UpdateProfileComponent&#45;&gt;ProfileModule -->
<g id="edge3" class="edge">
<title>UpdateProfileComponent&#45;&gt;ProfileModule</title>
<path fill="none" stroke="black" d="M387,-122.11C387,-122.11 387,-140.99 387,-140.99"/>
<polygon fill="black" stroke="black" points="383.5,-140.99 387,-150.99 390.5,-140.99 383.5,-140.99"/>
</g>
<!-- ProfileRoutingModule -->
<g id="node5" class="node">
<title>ProfileRoutingModule</title>
<polygon fill="#8dd3c7" stroke="black" points="283.27,-122 280.27,-126 259.27,-126 256.27,-122 140.73,-122 140.73,-86 283.27,-86 283.27,-122"/>
<text text-anchor="middle" x="212" y="-99.8" font-family="Times,serif" font-size="14.00">ProfileRoutingModule</text>
</g>
<!-- ProfileRoutingModule&#45;&gt;ProfileModule -->
<g id="edge4" class="edge">
<title>ProfileRoutingModule&#45;&gt;ProfileModule</title>
<path fill="none" stroke="black" d="M212,-122.02C212,-139.37 212,-163 212,-163 212,-163 328.25,-163 328.25,-163"/>
<polygon fill="black" stroke="black" points="328.25,-166.5 338.25,-163 328.25,-159.5 328.25,-166.5"/>
</g>
<!-- SharedModule -->
<g id="node6" class="node">
<title>SharedModule</title>
<polygon fill="#8dd3c7" stroke="black" points="122.42,-122 119.42,-126 98.42,-126 95.42,-122 23.58,-122 23.58,-86 122.42,-86 122.42,-122"/>
<text text-anchor="middle" x="73" y="-99.8" font-family="Times,serif" font-size="14.00">SharedModule</text>
</g>
<!-- SharedModule&#45;&gt;ProfileModule -->
<g id="edge5" class="edge">
<title>SharedModule&#45;&gt;ProfileModule</title>
<path fill="none" stroke="black" d="M73,-122.28C73,-143.32 73,-175 73,-175 73,-175 328.28,-175 328.28,-175"/>
<polygon fill="black" stroke="black" points="328.28,-178.5 338.28,-175 328.28,-171.5 328.28,-178.5"/>
</g>
</g>
</svg>
