<?xml version="1.0" encoding="UTF-8" standalone="no"?>
<!DOCTYPE svg PUBLIC "-//W3C//DTD SVG 1.1//EN"
 "http://www.w3.org/Graphics/SVG/1.1/DTD/svg11.dtd">
<!-- Generated by graphviz version 2.47.0 (20210316.0004)
 -->
<!-- Title: dependencies Pages: 1 -->
<svg width="656pt" height="211pt"
 viewBox="0.00 0.00 656.00 211.00" xmlns="http://www.w3.org/2000/svg" xmlns:xlink="http://www.w3.org/1999/xlink">
<g id="graph0" class="graph" transform="scale(1 1) rotate(0) translate(4 207)">
<title>dependencies</title>
<polygon fill="white" stroke="transparent" points="-4,4 -4,-207 652,-207 652,4 -4,4"/>
<text text-anchor="start" x="303.01" y="-42.4" font-family="Times-12" font-weight="bold" font-size="14.00">Legend</text>
<polygon fill="#ffffb3" stroke="transparent" points="90,-10 90,-30 110,-30 110,-10 90,-10"/>
<text text-anchor="start" x="113.63" y="-15.4" font-family="Times-12" font-size="14.00"> &#160;Declarations</text>
<polygon fill="#8dd3c7" stroke="transparent" points="203,-10 203,-30 223,-30 223,-10 203,-10"/>
<text text-anchor="start" x="226.73" y="-15.4" font-family="Times-12" font-size="14.00"> &#160;Module</text>
<polygon fill="#80b1d3" stroke="transparent" points="289,-10 289,-30 309,-30 309,-10 289,-10"/>
<text text-anchor="start" x="312.78" y="-15.4" font-family="Times-12" font-size="14.00"> &#160;Bootstrap</text>
<polygon fill="#fdb462" stroke="transparent" points="386,-10 386,-30 406,-30 406,-10 386,-10"/>
<text text-anchor="start" x="409.67" y="-15.4" font-family="Times-12" font-size="14.00"> &#160;Providers</text>
<polygon fill="#fb8072" stroke="transparent" points="482,-10 482,-30 502,-30 502,-10 482,-10"/>
<text text-anchor="start" x="505.73" y="-15.4" font-family="Times-12" font-size="14.00"> &#160;Exports</text>
<g id="clust1" class="cluster">
<title>cluster_AdminModule</title>
<polygon fill="none" stroke="black" stroke-dasharray="1,5" points="8,-70 8,-195 640,-195 640,-70 8,-70"/>
</g>
<g id="clust5" class="cluster">
<title>cluster_AdminModule_imports</title>
<polygon fill="none" stroke="black" points="356,-78 356,-130 632,-130 632,-78 356,-78"/>
</g>
<g id="clust2" class="cluster">
<title>cluster_AdminModule_declarations</title>
<polygon fill="none" stroke="black" points="16,-78 16,-130 348,-130 348,-78 16,-78"/>
</g>
<!-- AdminFormComponent -->
<g id="node1" class="node">
<title>AdminFormComponent</title>
<polygon fill="#ffffb3" stroke="black" points="340.05,-122 189.95,-122 189.95,-86 340.05,-86 340.05,-122"/>
<text text-anchor="middle" x="265" y="-99.8" font-family="Times,serif" font-size="14.00">AdminFormComponent</text>
</g>
<!-- AdminModule -->
<g id="node3" class="node">
<title>AdminModule</title>
<polygon fill="#8dd3c7" stroke="black" points="388.44,-187 385.44,-191 364.44,-191 361.44,-187 289.56,-187 289.56,-151 388.44,-151 388.44,-187"/>
<text text-anchor="middle" x="339" y="-164.8" font-family="Times,serif" font-size="14.00">AdminModule</text>
</g>
<!-- AdminFormComponent&#45;&gt;AdminModule -->
<g id="edge1" class="edge">
<title>AdminFormComponent&#45;&gt;AdminModule</title>
<path fill="none" stroke="black" d="M315.03,-122.11C315.03,-122.11 315.03,-140.99 315.03,-140.99"/>
<polygon fill="black" stroke="black" points="311.53,-140.99 315.03,-150.99 318.53,-140.99 311.53,-140.99"/>
</g>
<!-- AdminPageComponent -->
<g id="node2" class="node">
<title>AdminPageComponent</title>
<polygon fill="#ffffb3" stroke="black" points="171.93,-122 24.07,-122 24.07,-86 171.93,-86 171.93,-122"/>
<text text-anchor="middle" x="98" y="-99.8" font-family="Times,serif" font-size="14.00">AdminPageComponent</text>
</g>
<!-- AdminPageComponent&#45;&gt;AdminModule -->
<g id="edge2" class="edge">
<title>AdminPageComponent&#45;&gt;AdminModule</title>
<path fill="none" stroke="black" d="M98,-122.11C98,-141.34 98,-169 98,-169 98,-169 279.65,-169 279.65,-169"/>
<polygon fill="black" stroke="black" points="279.65,-172.5 289.65,-169 279.65,-165.5 279.65,-172.5"/>
</g>
<!-- AdminRoutingModule -->
<g id="node4" class="node">
<title>AdminRoutingModule</title>
<polygon fill="#8dd3c7" stroke="black" points="623.56,-122 620.56,-126 599.56,-126 596.56,-122 480.44,-122 480.44,-86 623.56,-86 623.56,-122"/>
<text text-anchor="middle" x="552" y="-99.8" font-family="Times,serif" font-size="14.00">AdminRoutingModule</text>
</g>
<!-- AdminRoutingModule&#45;&gt;AdminModule -->
<g id="edge3" class="edge">
<title>AdminRoutingModule&#45;&gt;AdminModule</title>
<path fill="none" stroke="black" d="M552,-122.11C552,-141.34 552,-169 552,-169 552,-169 398.4,-169 398.4,-169"/>
<polygon fill="black" stroke="black" points="398.4,-165.5 388.4,-169 398.4,-172.5 398.4,-165.5"/>
</g>
<!-- SharedModule -->
<g id="node5" class="node">
<title>SharedModule</title>
<polygon fill="#8dd3c7" stroke="black" points="462.42,-122 459.42,-126 438.42,-126 435.42,-122 363.58,-122 363.58,-86 462.42,-86 462.42,-122"/>
<text text-anchor="middle" x="413" y="-99.8" font-family="Times,serif" font-size="14.00">SharedModule</text>
</g>
<!-- SharedModule&#45;&gt;AdminModule -->
<g id="edge4" class="edge">
<title>SharedModule&#45;&gt;AdminModule</title>
<path fill="none" stroke="black" d="M376,-122.11C376,-122.11 376,-140.99 376,-140.99"/>
<polygon fill="black" stroke="black" points="372.5,-140.99 376,-150.99 379.5,-140.99 372.5,-140.99"/>
</g>
</g>
</svg>
