<?xml version="1.0" encoding="UTF-8" standalone="no"?>
<!DOCTYPE svg PUBLIC "-//W3C//DTD SVG 1.1//EN"
 "http://www.w3.org/Graphics/SVG/1.1/DTD/svg11.dtd">
<!-- Generated by graphviz version 2.47.0 (20210316.0004)
 -->
<!-- Title: dependencies Pages: 1 -->
<svg width="656pt" height="211pt"
 viewBox="0.00 0.00 656.00 211.00" xmlns="http://www.w3.org/2000/svg" xmlns:xlink="http://www.w3.org/1999/xlink">
<g id="graph0" class="graph" transform="scale(1 1) rotate(0) translate(4 207)">
<title>dependencies</title>
<polygon fill="white" stroke="transparent" points="-4,4 -4,-207 652,-207 652,4 -4,4"/>
<text text-anchor="start" x="303.01" y="-42.4" font-family="Times-12" font-weight="bold" font-size="14.00">Legend</text>
<polygon fill="#ffffb3" stroke="transparent" points="90,-10 90,-30 110,-30 110,-10 90,-10"/>
<text text-anchor="start" x="113.63" y="-15.4" font-family="Times-12" font-size="14.00"> &#160;Declarations</text>
<polygon fill="#8dd3c7" stroke="transparent" points="203,-10 203,-30 223,-30 223,-10 203,-10"/>
<text text-anchor="start" x="226.73" y="-15.4" font-family="Times-12" font-size="14.00"> &#160;Module</text>
<polygon fill="#80b1d3" stroke="transparent" points="289,-10 289,-30 309,-30 309,-10 289,-10"/>
<text text-anchor="start" x="312.78" y="-15.4" font-family="Times-12" font-size="14.00"> &#160;Bootstrap</text>
<polygon fill="#fdb462" stroke="transparent" points="386,-10 386,-30 406,-30 406,-10 386,-10"/>
<text text-anchor="start" x="409.67" y="-15.4" font-family="Times-12" font-size="14.00"> &#160;Providers</text>
<polygon fill="#fb8072" stroke="transparent" points="482,-10 482,-30 502,-30 502,-10 482,-10"/>
<text text-anchor="start" x="505.73" y="-15.4" font-family="Times-12" font-size="14.00"> &#160;Exports</text>
<g id="clust1" class="cluster">
<title>cluster_AdminModule</title>
<polygon fill="none" stroke="black" stroke-dasharray="1,5" points="8,-70 8,-195 640,-195 640,-70 8,-70"/>
</g>
<g id="clust2" class="cluster">
<title>cluster_AdminModule_declarations</title>
<polygon fill="none" stroke="black" points="300,-78 300,-130 632,-130 632,-78 300,-78"/>
</g>
<g id="clust5" class="cluster">
<title>cluster_AdminModule_imports</title>
<polygon fill="none" stroke="black" points="16,-78 16,-130 292,-130 292,-78 16,-78"/>
</g>
<!-- AdminFormComponent -->
<g id="node1" class="node">
<title>AdminFormComponent</title>
<polygon fill="#ffffb3" stroke="black" points="624.05,-122 473.95,-122 473.95,-86 624.05,-86 624.05,-122"/>
<text text-anchor="middle" x="549" y="-99.8" font-family="Times,serif" font-size="14.00">AdminFormComponent</text>
</g>
<!-- AdminModule -->
<g id="node3" class="node">
<title>AdminModule</title>
<polygon fill="#8dd3c7" stroke="black" points="346.44,-187 343.44,-191 322.44,-191 319.44,-187 247.56,-187 247.56,-151 346.44,-151 346.44,-187"/>
<text text-anchor="middle" x="297" y="-164.8" font-family="Times,serif" font-size="14.00">AdminModule</text>
</g>
<!-- AdminFormComponent&#45;&gt;AdminModule -->
<g id="edge1" class="edge">
<title>AdminFormComponent&#45;&gt;AdminModule</title>
<path fill="none" stroke="black" d="M549,-122.11C549,-141.34 549,-169 549,-169 549,-169 356.49,-169 356.49,-169"/>
<polygon fill="black" stroke="black" points="356.49,-165.5 346.49,-169 356.49,-172.5 356.49,-165.5"/>
</g>
<!-- AdminPageComponent -->
<g id="node2" class="node">
<title>AdminPageComponent</title>
<polygon fill="#ffffb3" stroke="black" points="455.93,-122 308.07,-122 308.07,-86 455.93,-86 455.93,-122"/>
<text text-anchor="middle" x="382" y="-99.8" font-family="Times,serif" font-size="14.00">AdminPageComponent</text>
</g>
<!-- AdminPageComponent&#45;&gt;AdminModule -->
<g id="edge2" class="edge">
<title>AdminPageComponent&#45;&gt;AdminModule</title>
<path fill="none" stroke="black" d="M327.25,-122.11C327.25,-122.11 327.25,-140.99 327.25,-140.99"/>
<polygon fill="black" stroke="black" points="323.75,-140.99 327.25,-150.99 330.75,-140.99 323.75,-140.99"/>
</g>
<!-- AdminRoutingModule -->
<g id="node4" class="node">
<title>AdminRoutingModule</title>
<polygon fill="#8dd3c7" stroke="black" points="283.56,-122 280.56,-126 259.56,-126 256.56,-122 140.44,-122 140.44,-86 283.56,-86 283.56,-122"/>
<text text-anchor="middle" x="212" y="-99.8" font-family="Times,serif" font-size="14.00">AdminRoutingModule</text>
</g>
<!-- AdminRoutingModule&#45;&gt;AdminModule -->
<g id="edge3" class="edge">
<title>AdminRoutingModule&#45;&gt;AdminModule</title>
<path fill="none" stroke="black" d="M265.78,-122.11C265.78,-122.11 265.78,-140.99 265.78,-140.99"/>
<polygon fill="black" stroke="black" points="262.28,-140.99 265.78,-150.99 269.28,-140.99 262.28,-140.99"/>
</g>
<!-- SharedModule -->
<g id="node5" class="node">
<title>SharedModule</title>
<polygon fill="#8dd3c7" stroke="black" points="122.42,-122 119.42,-126 98.42,-126 95.42,-122 23.58,-122 23.58,-86 122.42,-86 122.42,-122"/>
<text text-anchor="middle" x="73" y="-99.8" font-family="Times,serif" font-size="14.00">SharedModule</text>
</g>
<!-- SharedModule&#45;&gt;AdminModule -->
<g id="edge4" class="edge">
<title>SharedModule&#45;&gt;AdminModule</title>
<path fill="none" stroke="black" d="M73,-122.11C73,-141.34 73,-169 73,-169 73,-169 237.56,-169 237.56,-169"/>
<polygon fill="black" stroke="black" points="237.56,-172.5 247.56,-169 237.56,-165.5 237.56,-172.5"/>
</g>
</g>
</svg>
