<?xml version="1.0" encoding="UTF-8" standalone="no"?>
<!DOCTYPE svg PUBLIC "-//W3C//DTD SVG 1.1//EN"
 "http://www.w3.org/Graphics/SVG/1.1/DTD/svg11.dtd">
<!-- Generated by graphviz version 2.47.0 (20210316.0004)
 -->
<!-- Title: dependencies Pages: 1 -->
<svg width="3471pt" height="284pt"
 viewBox="0.00 0.00 3471.00 284.00" xmlns="http://www.w3.org/2000/svg" xmlns:xlink="http://www.w3.org/1999/xlink">
<g id="graph0" class="graph" transform="scale(1 1) rotate(0) translate(4 280)">
<title>dependencies</title>
<polygon fill="white" stroke="transparent" points="-4,4 -4,-280 3467,-280 3467,4 -4,4"/>
<text text-anchor="start" x="1710.51" y="-42.4" font-family="Times-12" font-weight="bold" font-size="14.00">Legend</text>
<polygon fill="#ffffb3" stroke="transparent" points="1497.5,-10 1497.5,-30 1517.5,-30 1517.5,-10 1497.5,-10"/>
<text text-anchor="start" x="1521.13" y="-15.4" font-family="Times-12" font-size="14.00"> &#160;Declarations</text>
<polygon fill="#8dd3c7" stroke="transparent" points="1610.5,-10 1610.5,-30 1630.5,-30 1630.5,-10 1610.5,-10"/>
<text text-anchor="start" x="1634.23" y="-15.4" font-family="Times-12" font-size="14.00"> &#160;Module</text>
<polygon fill="#80b1d3" stroke="transparent" points="1696.5,-10 1696.5,-30 1716.5,-30 1716.5,-10 1696.5,-10"/>
<text text-anchor="start" x="1720.28" y="-15.4" font-family="Times-12" font-size="14.00"> &#160;Bootstrap</text>
<polygon fill="#fdb462" stroke="transparent" points="1793.5,-10 1793.5,-30 1813.5,-30 1813.5,-10 1793.5,-10"/>
<text text-anchor="start" x="1817.17" y="-15.4" font-family="Times-12" font-size="14.00"> &#160;Providers</text>
<polygon fill="#fb8072" stroke="transparent" points="1889.5,-10 1889.5,-30 1909.5,-30 1909.5,-10 1889.5,-10"/>
<text text-anchor="start" x="1913.23" y="-15.4" font-family="Times-12" font-size="14.00"> &#160;Exports</text>
<g id="clust1" class="cluster">
<title>cluster_AppModule</title>
<polygon fill="none" stroke="black" stroke-dasharray="1,5" points="8,-70 8,-268 3455,-268 3455,-70 8,-70"/>
</g>
<g id="clust2" class="cluster">
<title>cluster_AppModule_declarations</title>
<polygon fill="none" stroke="black" points="1177,-78 1177,-130 3447,-130 3447,-78 1177,-78"/>
</g>
<g id="clust18" class="cluster">
<title>cluster_AppModule_imports</title>
<polygon fill="none" stroke="black" points="16,-78 16,-130 1169,-130 1169,-78 16,-78"/>
</g>
<g id="clust20" class="cluster">
<title>cluster_AppModule_bootstrap</title>
<polygon fill="none" stroke="black" points="1853,-208 1853,-260 1977,-260 1977,-208 1853,-208"/>
</g>
<!-- AboutUsComponent -->
<g id="node1" class="node">
<title>AboutUsComponent</title>
<polygon fill="#ffffb3" stroke="black" points="3438.88,-122 3307.12,-122 3307.12,-86 3438.88,-86 3438.88,-122"/>
<text text-anchor="middle" x="3373" y="-99.8" font-family="Times,serif" font-size="14.00">AboutUsComponent</text>
</g>
<!-- AppModule -->
<g id="node16" class="node">
<title>AppModule</title>
<polygon fill="#8dd3c7" stroke="black" points="1956.66,-187 1953.66,-191 1932.66,-191 1929.66,-187 1873.34,-187 1873.34,-151 1956.66,-151 1956.66,-187"/>
<text text-anchor="middle" x="1915" y="-164.8" font-family="Times,serif" font-size="14.00">AppModule</text>
</g>
<!-- AboutUsComponent&#45;&gt;AppModule -->
<g id="edge1" class="edge">
<title>AboutUsComponent&#45;&gt;AppModule</title>
<path fill="none" stroke="black" d="M3373,-122.15C3373,-145.76 3373,-184 3373,-184 3373,-184 1966.67,-184 1966.67,-184"/>
<polygon fill="black" stroke="black" points="1966.67,-180.5 1956.67,-184 1966.67,-187.5 1966.67,-180.5"/>
</g>
<!-- AdminFormComponent -->
<g id="node2" class="node">
<title>AdminFormComponent</title>
<polygon fill="#ffffb3" stroke="black" points="3289.05,-122 3138.95,-122 3138.95,-86 3289.05,-86 3289.05,-122"/>
<text text-anchor="middle" x="3214" y="-99.8" font-family="Times,serif" font-size="14.00">AdminFormComponent</text>
</g>
<!-- AdminFormComponent&#45;&gt;AppModule -->
<g id="edge2" class="edge">
<title>AdminFormComponent&#45;&gt;AppModule</title>
<path fill="none" stroke="black" d="M3214,-122.01C3214,-144.49 3214,-180 3214,-180 3214,-180 1966.75,-180 1966.75,-180"/>
<polygon fill="black" stroke="black" points="1966.75,-176.5 1956.75,-180 1966.75,-183.5 1966.75,-176.5"/>
</g>
<!-- AdminPageComponent -->
<g id="node3" class="node">
<title>AdminPageComponent</title>
<polygon fill="#ffffb3" stroke="black" points="3120.93,-122 2973.07,-122 2973.07,-86 3120.93,-86 3120.93,-122"/>
<text text-anchor="middle" x="3047" y="-99.8" font-family="Times,serif" font-size="14.00">AdminPageComponent</text>
</g>
<!-- AdminPageComponent&#45;&gt;AppModule -->
<g id="edge3" class="edge">
<title>AdminPageComponent&#45;&gt;AppModule</title>
<path fill="none" stroke="black" d="M3047,-122.04C3047,-143.66 3047,-177 3047,-177 3047,-177 1966.97,-177 1966.97,-177"/>
<polygon fill="black" stroke="black" points="1966.97,-173.5 1956.97,-177 1966.97,-180.5 1966.97,-173.5"/>
</g>
<!-- AppComponent -->
<g id="node4" class="node">
<title>AppComponent</title>
<polygon fill="#ffffb3" stroke="black" points="2955.94,-122 2850.06,-122 2850.06,-86 2955.94,-86 2955.94,-122"/>
<text text-anchor="middle" x="2903" y="-99.8" font-family="Times,serif" font-size="14.00">AppComponent</text>
</g>
<!-- AppComponent&#45;&gt;AppModule -->
<g id="edge4" class="edge">
<title>AppComponent&#45;&gt;AppModule</title>
<path fill="none" stroke="black" d="M2903,-122.13C2903,-142.57 2903,-173 2903,-173 2903,-173 1966.82,-173 1966.82,-173"/>
<polygon fill="black" stroke="black" points="1966.82,-169.5 1956.82,-173 1966.82,-176.5 1966.82,-169.5"/>
</g>
<!-- DrinkListComponent -->
<g id="node5" class="node">
<title>DrinkListComponent</title>
<polygon fill="#ffffb3" stroke="black" points="2831.77,-122 2696.23,-122 2696.23,-86 2831.77,-86 2831.77,-122"/>
<text text-anchor="middle" x="2764" y="-99.8" font-family="Times,serif" font-size="14.00">DrinkListComponent</text>
</g>
<!-- DrinkListComponent&#45;&gt;AppModule -->
<g id="edge5" class="edge">
<title>DrinkListComponent&#45;&gt;AppModule</title>
<path fill="none" stroke="black" d="M2764,-122.11C2764,-141.34 2764,-169 2764,-169 2764,-169 1966.81,-169 1966.81,-169"/>
<polygon fill="black" stroke="black" points="1966.81,-165.5 1956.81,-169 1966.81,-172.5 1966.81,-165.5"/>
</g>
<!-- HomeComponent -->
<g id="node6" class="node">
<title>HomeComponent</title>
<polygon fill="#ffffb3" stroke="black" points="2677.55,-122 2562.45,-122 2562.45,-86 2677.55,-86 2677.55,-122"/>
<text text-anchor="middle" x="2620" y="-99.8" font-family="Times,serif" font-size="14.00">HomeComponent</text>
</g>
<!-- HomeComponent&#45;&gt;AppModule -->
<g id="edge6" class="edge">
<title>HomeComponent&#45;&gt;AppModule</title>
<path fill="none" stroke="black" d="M2620,-122.27C2620,-140.56 2620,-166 2620,-166 2620,-166 1966.73,-166 1966.73,-166"/>
<polygon fill="black" stroke="black" points="1966.73,-162.5 1956.73,-166 1966.73,-169.5 1966.73,-162.5"/>
</g>
<!-- LandingPageComponent -->
<g id="node7" class="node">
<title>LandingPageComponent</title>
<polygon fill="#ffffb3" stroke="black" points="2544.7,-122 2389.3,-122 2389.3,-86 2544.7,-86 2544.7,-122"/>
<text text-anchor="middle" x="2467" y="-99.8" font-family="Times,serif" font-size="14.00">LandingPageComponent</text>
</g>
<!-- LandingPageComponent&#45;&gt;AppModule -->
<g id="edge7" class="edge">
<title>LandingPageComponent&#45;&gt;AppModule</title>
<path fill="none" stroke="black" d="M2467,-122.03C2467,-139.06 2467,-162 2467,-162 2467,-162 1966.94,-162 1966.94,-162"/>
<polygon fill="black" stroke="black" points="1966.94,-158.5 1956.94,-162 1966.94,-165.5 1966.94,-158.5"/>
</g>
<!-- LoginComponent -->
<g id="node8" class="node">
<title>LoginComponent</title>
<polygon fill="#ffffb3" stroke="black" points="2371.28,-122 2256.72,-122 2256.72,-86 2371.28,-86 2371.28,-122"/>
<text text-anchor="middle" x="2314" y="-99.8" font-family="Times,serif" font-size="14.00">LoginComponent</text>
</g>
<!-- LoginComponent&#45;&gt;AppModule -->
<g id="edge8" class="edge">
<title>LoginComponent&#45;&gt;AppModule</title>
<path fill="none" stroke="black" d="M2314,-122.01C2314,-138.05 2314,-159 2314,-159 2314,-159 1966.95,-159 1966.95,-159"/>
<polygon fill="black" stroke="black" points="1966.95,-155.5 1956.95,-159 1966.95,-162.5 1966.95,-155.5"/>
</g>
<!-- NavigationComponent -->
<g id="node9" class="node">
<title>NavigationComponent</title>
<polygon fill="#ffffb3" stroke="black" points="2238.54,-122 2095.46,-122 2095.46,-86 2238.54,-86 2238.54,-122"/>
<text text-anchor="middle" x="2167" y="-99.8" font-family="Times,serif" font-size="14.00">NavigationComponent</text>
</g>
<!-- NavigationComponent&#45;&gt;AppModule -->
<g id="edge9" class="edge">
<title>NavigationComponent&#45;&gt;AppModule</title>
<path fill="none" stroke="black" d="M2167,-122.12C2167,-136.78 2167,-155 2167,-155 2167,-155 1966.9,-155 1966.9,-155"/>
<polygon fill="black" stroke="black" points="1966.9,-151.5 1956.9,-155 1966.9,-158.5 1966.9,-151.5"/>
</g>
<!-- PageNotFoundComponent -->
<g id="node10" class="node">
<title>PageNotFoundComponent</title>
<polygon fill="#ffffb3" stroke="black" points="2077.82,-122 1912.18,-122 1912.18,-86 2077.82,-86 2077.82,-122"/>
<text text-anchor="middle" x="1995" y="-99.8" font-family="Times,serif" font-size="14.00">PageNotFoundComponent</text>
</g>
<!-- PageNotFoundComponent&#45;&gt;AppModule -->
<g id="edge10" class="edge">
<title>PageNotFoundComponent&#45;&gt;AppModule</title>
<path fill="none" stroke="black" d="M1934.58,-122.11C1934.58,-122.11 1934.58,-140.99 1934.58,-140.99"/>
<polygon fill="black" stroke="black" points="1931.08,-140.99 1934.58,-150.99 1938.08,-140.99 1931.08,-140.99"/>
</g>
<!-- ProfileComponent -->
<g id="node11" class="node">
<title>ProfileComponent</title>
<polygon fill="#ffffb3" stroke="black" points="1894.93,-122 1775.07,-122 1775.07,-86 1894.93,-86 1894.93,-122"/>
<text text-anchor="middle" x="1835" y="-99.8" font-family="Times,serif" font-size="14.00">ProfileComponent</text>
</g>
<!-- ProfileComponent&#45;&gt;AppModule -->
<g id="edge11" class="edge">
<title>ProfileComponent&#45;&gt;AppModule</title>
<path fill="none" stroke="black" d="M1883.94,-122.11C1883.94,-122.11 1883.94,-140.99 1883.94,-140.99"/>
<polygon fill="black" stroke="black" points="1880.44,-140.99 1883.94,-150.99 1887.44,-140.99 1880.44,-140.99"/>
</g>
<!-- RegisterComponent -->
<g id="node12" class="node">
<title>RegisterComponent</title>
<polygon fill="#ffffb3" stroke="black" points="1756.98,-122 1629.02,-122 1629.02,-86 1756.98,-86 1756.98,-122"/>
<text text-anchor="middle" x="1693" y="-99.8" font-family="Times,serif" font-size="14.00">RegisterComponent</text>
</g>
<!-- RegisterComponent&#45;&gt;AppModule -->
<g id="edge12" class="edge">
<title>RegisterComponent&#45;&gt;AppModule</title>
<path fill="none" stroke="black" d="M1693,-122.12C1693,-136.78 1693,-155 1693,-155 1693,-155 1863.24,-155 1863.24,-155"/>
<polygon fill="black" stroke="black" points="1863.24,-158.5 1873.24,-155 1863.24,-151.5 1863.24,-158.5"/>
</g>
<!-- StatsComponent -->
<g id="node13" class="node">
<title>StatsComponent</title>
<polygon fill="#ffffb3" stroke="black" points="1611.06,-122 1502.94,-122 1502.94,-86 1611.06,-86 1611.06,-122"/>
<text text-anchor="middle" x="1557" y="-99.8" font-family="Times,serif" font-size="14.00">StatsComponent</text>
</g>
<!-- StatsComponent&#45;&gt;AppModule -->
<g id="edge13" class="edge">
<title>StatsComponent&#45;&gt;AppModule</title>
<path fill="none" stroke="black" d="M1557,-122.01C1557,-138.05 1557,-159 1557,-159 1557,-159 1863.23,-159 1863.23,-159"/>
<polygon fill="black" stroke="black" points="1863.23,-162.5 1873.23,-159 1863.23,-155.5 1863.23,-162.5"/>
</g>
<!-- TrimDecimalsPipe -->
<g id="node14" class="node">
<title>TrimDecimalsPipe</title>
<polygon fill="#ffffb3" stroke="black" points="1484.75,-122 1363.25,-122 1363.25,-86 1484.75,-86 1484.75,-122"/>
<text text-anchor="middle" x="1424" y="-99.8" font-family="Times,serif" font-size="14.00">TrimDecimalsPipe</text>
</g>
<!-- TrimDecimalsPipe&#45;&gt;AppModule -->
<g id="edge14" class="edge">
<title>TrimDecimalsPipe&#45;&gt;AppModule</title>
<path fill="none" stroke="black" d="M1424,-122.03C1424,-139.06 1424,-162 1424,-162 1424,-162 1863.14,-162 1863.14,-162"/>
<polygon fill="black" stroke="black" points="1863.14,-165.5 1873.14,-162 1863.14,-158.5 1863.14,-165.5"/>
</g>
<!-- UpdateProfileComponent -->
<g id="node15" class="node">
<title>UpdateProfileComponent</title>
<polygon fill="#ffffb3" stroke="black" points="1344.86,-122 1185.14,-122 1185.14,-86 1344.86,-86 1344.86,-122"/>
<text text-anchor="middle" x="1265" y="-99.8" font-family="Times,serif" font-size="14.00">UpdateProfileComponent</text>
</g>
<!-- UpdateProfileComponent&#45;&gt;AppModule -->
<g id="edge15" class="edge">
<title>UpdateProfileComponent&#45;&gt;AppModule</title>
<path fill="none" stroke="black" d="M1265,-122.27C1265,-140.56 1265,-166 1265,-166 1265,-166 1862.85,-166 1862.85,-166"/>
<polygon fill="black" stroke="black" points="1862.85,-169.5 1872.85,-166 1862.85,-162.5 1862.85,-169.5"/>
</g>
<!-- AppComponent  -->
<g id="node22" class="node">
<title>AppComponent </title>
<polygon fill="#80b1d3" stroke="black" points="1969.44,-252 1860.56,-252 1860.56,-216 1969.44,-216 1969.44,-252"/>
<text text-anchor="middle" x="1915" y="-229.8" font-family="Times,serif" font-size="14.00">AppComponent </text>
</g>
<!-- AppModule&#45;&gt;AppComponent  -->
<g id="edge21" class="edge">
<title>AppModule&#45;&gt;AppComponent </title>
<path fill="none" stroke="black" stroke-dasharray="1,5" d="M1915,-187.11C1915,-187.11 1915,-205.99 1915,-205.99"/>
<polygon fill="black" stroke="black" points="1911.5,-205.99 1915,-215.99 1918.5,-205.99 1911.5,-205.99"/>
</g>
<!-- AppRoutingModule -->
<g id="node17" class="node">
<title>AppRoutingModule</title>
<polygon fill="#8dd3c7" stroke="black" points="1161.27,-122 1158.27,-126 1137.27,-126 1134.27,-122 1032.73,-122 1032.73,-86 1161.27,-86 1161.27,-122"/>
<text text-anchor="middle" x="1097" y="-99.8" font-family="Times,serif" font-size="14.00">AppRoutingModule</text>
</g>
<!-- AppRoutingModule&#45;&gt;AppModule -->
<g id="edge16" class="edge">
<title>AppRoutingModule&#45;&gt;AppModule</title>
<path fill="none" stroke="black" d="M1097,-122.11C1097,-141.34 1097,-169 1097,-169 1097,-169 1863.31,-169 1863.31,-169"/>
<polygon fill="black" stroke="black" points="1863.31,-172.5 1873.31,-169 1863.31,-165.5 1863.31,-172.5"/>
</g>
<!-- provideAuth(() =&gt; getAuth()) -->
<g id="node18" class="node">
<title>provideAuth(() =&gt; getAuth())</title>
<polygon fill="#8dd3c7" stroke="black" points="1014.12,-122 1011.12,-126 990.12,-126 987.12,-122 831.88,-122 831.88,-86 1014.12,-86 1014.12,-122"/>
<text text-anchor="middle" x="923" y="-99.8" font-family="Times,serif" font-size="14.00">provideAuth(() =&gt; getAuth())</text>
</g>
<!-- provideAuth(() =&gt; getAuth())&#45;&gt;AppModule -->
<g id="edge17" class="edge">
<title>provideAuth(() =&gt; getAuth())&#45;&gt;AppModule</title>
<path fill="none" stroke="black" d="M923,-122.13C923,-142.57 923,-173 923,-173 923,-173 1863.32,-173 1863.32,-173"/>
<polygon fill="black" stroke="black" points="1863.32,-176.5 1873.32,-173 1863.32,-169.5 1863.32,-176.5"/>
</g>
<!-- provideFirebaseApp(() =&gt; initializeApp(environment -->
<g id="node19" class="node">
<title>provideFirebaseApp(() =&gt; initializeApp(environment</title>
<polygon fill="#8dd3c7" stroke="black" points="813.58,-122 810.58,-126 789.58,-126 786.58,-122 498.42,-122 498.42,-86 813.58,-86 813.58,-122"/>
<text text-anchor="middle" x="656" y="-99.8" font-family="Times,serif" font-size="14.00">provideFirebaseApp(() =&gt; initializeApp(environment</text>
</g>
<!-- provideFirebaseApp(() =&gt; initializeApp(environment&#45;&gt;AppModule -->
<g id="edge18" class="edge">
<title>provideFirebaseApp(() =&gt; initializeApp(environment&#45;&gt;AppModule</title>
<path fill="none" stroke="black" d="M656,-122.04C656,-143.66 656,-177 656,-177 656,-177 1863.11,-177 1863.11,-177"/>
<polygon fill="black" stroke="black" points="1863.11,-180.5 1873.11,-177 1863.11,-173.5 1863.11,-180.5"/>
</g>
<!-- provideFirestore(() =&gt; getFirestore()) -->
<g id="node20" class="node">
<title>provideFirestore(() =&gt; getFirestore())</title>
<polygon fill="#8dd3c7" stroke="black" points="480.14,-122 477.14,-126 456.14,-126 453.14,-122 253.86,-122 253.86,-86 480.14,-86 480.14,-122"/>
<text text-anchor="middle" x="367" y="-99.8" font-family="Times,serif" font-size="14.00">provideFirestore(() =&gt; getFirestore())</text>
</g>
<!-- provideFirestore(() =&gt; getFirestore())&#45;&gt;AppModule -->
<g id="edge19" class="edge">
<title>provideFirestore(() =&gt; getFirestore())&#45;&gt;AppModule</title>
<path fill="none" stroke="black" d="M367,-122.01C367,-144.49 367,-180 367,-180 367,-180 1863.19,-180 1863.19,-180"/>
<polygon fill="black" stroke="black" points="1863.19,-183.5 1873.19,-180 1863.19,-176.5 1863.19,-183.5"/>
</g>
<!-- provideStorage(() =&gt; getStorage()) -->
<g id="node21" class="node">
<title>provideStorage(() =&gt; getStorage())</title>
<polygon fill="#8dd3c7" stroke="black" points="236.15,-122 233.15,-126 212.15,-126 209.15,-122 23.85,-122 23.85,-86 236.15,-86 236.15,-122"/>
<text text-anchor="middle" x="130" y="-99.8" font-family="Times,serif" font-size="14.00">provideStorage(() =&gt; getStorage())</text>
</g>
<!-- provideStorage(() =&gt; getStorage())&#45;&gt;AppModule -->
<g id="edge20" class="edge">
<title>provideStorage(() =&gt; getStorage())&#45;&gt;AppModule</title>
<path fill="none" stroke="black" d="M130,-122.15C130,-145.76 130,-184 130,-184 130,-184 1863.07,-184 1863.07,-184"/>
<polygon fill="black" stroke="black" points="1863.07,-187.5 1873.07,-184 1863.07,-180.5 1863.07,-187.5"/>
</g>
</g>
</svg>
