<?xml version="1.0" encoding="UTF-8" standalone="no"?>
<!DOCTYPE svg PUBLIC "-//W3C//DTD SVG 1.1//EN"
 "http://www.w3.org/Graphics/SVG/1.1/DTD/svg11.dtd">
<!-- Generated by graphviz version 2.47.0 (20210316.0004)
 -->
<!-- Title: dependencies Pages: 1 -->
<svg width="3471pt" height="284pt"
 viewBox="0.00 0.00 3471.00 284.00" xmlns="http://www.w3.org/2000/svg" xmlns:xlink="http://www.w3.org/1999/xlink">
<g id="graph0" class="graph" transform="scale(1 1) rotate(0) translate(4 280)">
<title>dependencies</title>
<polygon fill="white" stroke="transparent" points="-4,4 -4,-280 3467,-280 3467,4 -4,4"/>
<text text-anchor="start" x="1710.51" y="-42.4" font-family="Times-12" font-weight="bold" font-size="14.00">Legend</text>
<polygon fill="#ffffb3" stroke="transparent" points="1497.5,-10 1497.5,-30 1517.5,-30 1517.5,-10 1497.5,-10"/>
<text text-anchor="start" x="1521.13" y="-15.4" font-family="Times-12" font-size="14.00"> &#160;Declarations</text>
<polygon fill="#8dd3c7" stroke="transparent" points="1610.5,-10 1610.5,-30 1630.5,-30 1630.5,-10 1610.5,-10"/>
<text text-anchor="start" x="1634.23" y="-15.4" font-family="Times-12" font-size="14.00"> &#160;Module</text>
<polygon fill="#80b1d3" stroke="transparent" points="1696.5,-10 1696.5,-30 1716.5,-30 1716.5,-10 1696.5,-10"/>
<text text-anchor="start" x="1720.28" y="-15.4" font-family="Times-12" font-size="14.00"> &#160;Bootstrap</text>
<polygon fill="#fdb462" stroke="transparent" points="1793.5,-10 1793.5,-30 1813.5,-30 1813.5,-10 1793.5,-10"/>
<text text-anchor="start" x="1817.17" y="-15.4" font-family="Times-12" font-size="14.00"> &#160;Providers</text>
<polygon fill="#fb8072" stroke="transparent" points="1889.5,-10 1889.5,-30 1909.5,-30 1909.5,-10 1889.5,-10"/>
<text text-anchor="start" x="1913.23" y="-15.4" font-family="Times-12" font-size="14.00"> &#160;Exports</text>
<g id="clust1" class="cluster">
<title>cluster_AppModule</title>
<polygon fill="none" stroke="black" stroke-dasharray="1,5" points="8,-70 8,-268 3455,-268 3455,-70 8,-70"/>
</g>
<g id="clust18" class="cluster">
<title>cluster_AppModule_imports</title>
<polygon fill="none" stroke="black" points="2294,-78 2294,-130 3447,-130 3447,-78 2294,-78"/>
</g>
<g id="clust2" class="cluster">
<title>cluster_AppModule_declarations</title>
<polygon fill="none" stroke="black" points="16,-78 16,-130 2286,-130 2286,-78 16,-78"/>
</g>
<g id="clust20" class="cluster">
<title>cluster_AppModule_bootstrap</title>
<polygon fill="none" stroke="black" points="1469,-208 1469,-260 1593,-260 1593,-208 1469,-208"/>
</g>
<!-- AboutUsComponent -->
<g id="node1" class="node">
<title>AboutUsComponent</title>
<polygon fill="#ffffb3" stroke="black" points="2277.88,-122 2146.12,-122 2146.12,-86 2277.88,-86 2277.88,-122"/>
<text text-anchor="middle" x="2212" y="-99.8" font-family="Times,serif" font-size="14.00">AboutUsComponent</text>
</g>
<!-- AppModule -->
<g id="node16" class="node">
<title>AppModule</title>
<polygon fill="#8dd3c7" stroke="black" points="1572.66,-187 1569.66,-191 1548.66,-191 1545.66,-187 1489.34,-187 1489.34,-151 1572.66,-151 1572.66,-187"/>
<text text-anchor="middle" x="1531" y="-164.8" font-family="Times,serif" font-size="14.00">AppModule</text>
</g>
<!-- AboutUsComponent&#45;&gt;AppModule -->
<g id="edge1" class="edge">
<title>AboutUsComponent&#45;&gt;AppModule</title>
<path fill="none" stroke="black" d="M2212,-122.27C2212,-140.56 2212,-166 2212,-166 2212,-166 1582.83,-166 1582.83,-166"/>
<polygon fill="black" stroke="black" points="1582.83,-162.5 1572.83,-166 1582.83,-169.5 1582.83,-162.5"/>
</g>
<!-- AdminFormComponent -->
<g id="node2" class="node">
<title>AdminFormComponent</title>
<polygon fill="#ffffb3" stroke="black" points="2128.05,-122 1977.95,-122 1977.95,-86 2128.05,-86 2128.05,-122"/>
<text text-anchor="middle" x="2053" y="-99.8" font-family="Times,serif" font-size="14.00">AdminFormComponent</text>
</g>
<!-- AdminFormComponent&#45;&gt;AppModule -->
<g id="edge2" class="edge">
<title>AdminFormComponent&#45;&gt;AppModule</title>
<path fill="none" stroke="black" d="M2053,-122.03C2053,-139.06 2053,-162 2053,-162 2053,-162 1582.84,-162 1582.84,-162"/>
<polygon fill="black" stroke="black" points="1582.84,-158.5 1572.84,-162 1582.84,-165.5 1582.84,-158.5"/>
</g>
<!-- AdminPageComponent -->
<g id="node3" class="node">
<title>AdminPageComponent</title>
<polygon fill="#ffffb3" stroke="black" points="1959.93,-122 1812.07,-122 1812.07,-86 1959.93,-86 1959.93,-122"/>
<text text-anchor="middle" x="1886" y="-99.8" font-family="Times,serif" font-size="14.00">AdminPageComponent</text>
</g>
<!-- AdminPageComponent&#45;&gt;AppModule -->
<g id="edge3" class="edge">
<title>AdminPageComponent&#45;&gt;AppModule</title>
<path fill="none" stroke="black" d="M1886,-122.01C1886,-138.05 1886,-159 1886,-159 1886,-159 1582.77,-159 1582.77,-159"/>
<polygon fill="black" stroke="black" points="1582.77,-155.5 1572.77,-159 1582.77,-162.5 1582.77,-155.5"/>
</g>
<!-- AppComponent -->
<g id="node4" class="node">
<title>AppComponent</title>
<polygon fill="#ffffb3" stroke="black" points="1794.94,-122 1689.06,-122 1689.06,-86 1794.94,-86 1794.94,-122"/>
<text text-anchor="middle" x="1742" y="-99.8" font-family="Times,serif" font-size="14.00">AppComponent</text>
</g>
<!-- AppComponent&#45;&gt;AppModule -->
<g id="edge4" class="edge">
<title>AppComponent&#45;&gt;AppModule</title>
<path fill="none" stroke="black" d="M1742,-122.12C1742,-136.78 1742,-155 1742,-155 1742,-155 1582.69,-155 1582.69,-155"/>
<polygon fill="black" stroke="black" points="1582.69,-151.5 1572.69,-155 1582.69,-158.5 1582.69,-151.5"/>
</g>
<!-- DrinkListComponent -->
<g id="node5" class="node">
<title>DrinkListComponent</title>
<polygon fill="#ffffb3" stroke="black" points="1670.77,-122 1535.23,-122 1535.23,-86 1670.77,-86 1670.77,-122"/>
<text text-anchor="middle" x="1603" y="-99.8" font-family="Times,serif" font-size="14.00">DrinkListComponent</text>
</g>
<!-- DrinkListComponent&#45;&gt;AppModule -->
<g id="edge5" class="edge">
<title>DrinkListComponent&#45;&gt;AppModule</title>
<path fill="none" stroke="black" d="M1553.97,-122.11C1553.97,-122.11 1553.97,-140.99 1553.97,-140.99"/>
<polygon fill="black" stroke="black" points="1550.47,-140.99 1553.97,-150.99 1557.47,-140.99 1550.47,-140.99"/>
</g>
<!-- HomeComponent -->
<g id="node6" class="node">
<title>HomeComponent</title>
<polygon fill="#ffffb3" stroke="black" points="1516.55,-122 1401.45,-122 1401.45,-86 1516.55,-86 1516.55,-122"/>
<text text-anchor="middle" x="1459" y="-99.8" font-family="Times,serif" font-size="14.00">HomeComponent</text>
</g>
<!-- HomeComponent&#45;&gt;AppModule -->
<g id="edge6" class="edge">
<title>HomeComponent&#45;&gt;AppModule</title>
<path fill="none" stroke="black" d="M1502.97,-122.11C1502.97,-122.11 1502.97,-140.99 1502.97,-140.99"/>
<polygon fill="black" stroke="black" points="1499.47,-140.99 1502.97,-150.99 1506.47,-140.99 1499.47,-140.99"/>
</g>
<!-- LandingPageComponent -->
<g id="node7" class="node">
<title>LandingPageComponent</title>
<polygon fill="#ffffb3" stroke="black" points="1383.7,-122 1228.3,-122 1228.3,-86 1383.7,-86 1383.7,-122"/>
<text text-anchor="middle" x="1306" y="-99.8" font-family="Times,serif" font-size="14.00">LandingPageComponent</text>
</g>
<!-- LandingPageComponent&#45;&gt;AppModule -->
<g id="edge7" class="edge">
<title>LandingPageComponent&#45;&gt;AppModule</title>
<path fill="none" stroke="black" d="M1306,-122.12C1306,-136.78 1306,-155 1306,-155 1306,-155 1479.21,-155 1479.21,-155"/>
<polygon fill="black" stroke="black" points="1479.21,-158.5 1489.21,-155 1479.21,-151.5 1479.21,-158.5"/>
</g>
<!-- LoginComponent -->
<g id="node8" class="node">
<title>LoginComponent</title>
<polygon fill="#ffffb3" stroke="black" points="1210.28,-122 1095.72,-122 1095.72,-86 1210.28,-86 1210.28,-122"/>
<text text-anchor="middle" x="1153" y="-99.8" font-family="Times,serif" font-size="14.00">LoginComponent</text>
</g>
<!-- LoginComponent&#45;&gt;AppModule -->
<g id="edge8" class="edge">
<title>LoginComponent&#45;&gt;AppModule</title>
<path fill="none" stroke="black" d="M1153,-122.01C1153,-138.05 1153,-159 1153,-159 1153,-159 1479.1,-159 1479.1,-159"/>
<polygon fill="black" stroke="black" points="1479.1,-162.5 1489.1,-159 1479.1,-155.5 1479.1,-162.5"/>
</g>
<!-- NavigationComponent -->
<g id="node9" class="node">
<title>NavigationComponent</title>
<polygon fill="#ffffb3" stroke="black" points="1077.54,-122 934.46,-122 934.46,-86 1077.54,-86 1077.54,-122"/>
<text text-anchor="middle" x="1006" y="-99.8" font-family="Times,serif" font-size="14.00">NavigationComponent</text>
</g>
<!-- NavigationComponent&#45;&gt;AppModule -->
<g id="edge9" class="edge">
<title>NavigationComponent&#45;&gt;AppModule</title>
<path fill="none" stroke="black" d="M1006,-122.03C1006,-139.06 1006,-162 1006,-162 1006,-162 1478.92,-162 1478.92,-162"/>
<polygon fill="black" stroke="black" points="1478.92,-165.5 1488.92,-162 1478.92,-158.5 1478.92,-165.5"/>
</g>
<!-- PageNotFoundComponent -->
<g id="node10" class="node">
<title>PageNotFoundComponent</title>
<polygon fill="#ffffb3" stroke="black" points="916.82,-122 751.18,-122 751.18,-86 916.82,-86 916.82,-122"/>
<text text-anchor="middle" x="834" y="-99.8" font-family="Times,serif" font-size="14.00">PageNotFoundComponent</text>
</g>
<!-- PageNotFoundComponent&#45;&gt;AppModule -->
<g id="edge10" class="edge">
<title>PageNotFoundComponent&#45;&gt;AppModule</title>
<path fill="none" stroke="black" d="M834,-122.27C834,-140.56 834,-166 834,-166 834,-166 1479.23,-166 1479.23,-166"/>
<polygon fill="black" stroke="black" points="1479.23,-169.5 1489.23,-166 1479.23,-162.5 1479.23,-169.5"/>
</g>
<!-- ProfileComponent -->
<g id="node11" class="node">
<title>ProfileComponent</title>
<polygon fill="#ffffb3" stroke="black" points="733.93,-122 614.07,-122 614.07,-86 733.93,-86 733.93,-122"/>
<text text-anchor="middle" x="674" y="-99.8" font-family="Times,serif" font-size="14.00">ProfileComponent</text>
</g>
<!-- ProfileComponent&#45;&gt;AppModule -->
<g id="edge11" class="edge">
<title>ProfileComponent&#45;&gt;AppModule</title>
<path fill="none" stroke="black" d="M674,-122.11C674,-141.34 674,-169 674,-169 674,-169 1479.08,-169 1479.08,-169"/>
<polygon fill="black" stroke="black" points="1479.09,-172.5 1489.08,-169 1479.08,-165.5 1479.09,-172.5"/>
</g>
<!-- RegisterComponent -->
<g id="node12" class="node">
<title>RegisterComponent</title>
<polygon fill="#ffffb3" stroke="black" points="595.98,-122 468.02,-122 468.02,-86 595.98,-86 595.98,-122"/>
<text text-anchor="middle" x="532" y="-99.8" font-family="Times,serif" font-size="14.00">RegisterComponent</text>
</g>
<!-- RegisterComponent&#45;&gt;AppModule -->
<g id="edge12" class="edge">
<title>RegisterComponent&#45;&gt;AppModule</title>
<path fill="none" stroke="black" d="M532,-122.13C532,-142.57 532,-173 532,-173 532,-173 1479.03,-173 1479.03,-173"/>
<polygon fill="black" stroke="black" points="1479.03,-176.5 1489.03,-173 1479.03,-169.5 1479.03,-176.5"/>
</g>
<!-- StatsComponent -->
<g id="node13" class="node">
<title>StatsComponent</title>
<polygon fill="#ffffb3" stroke="black" points="450.06,-122 341.94,-122 341.94,-86 450.06,-86 450.06,-122"/>
<text text-anchor="middle" x="396" y="-99.8" font-family="Times,serif" font-size="14.00">StatsComponent</text>
</g>
<!-- StatsComponent&#45;&gt;AppModule -->
<g id="edge13" class="edge">
<title>StatsComponent&#45;&gt;AppModule</title>
<path fill="none" stroke="black" d="M396,-122.04C396,-143.66 396,-177 396,-177 396,-177 1479.26,-177 1479.26,-177"/>
<polygon fill="black" stroke="black" points="1479.26,-180.5 1489.26,-177 1479.26,-173.5 1479.26,-180.5"/>
</g>
<!-- TrimDecimalsPipe -->
<g id="node14" class="node">
<title>TrimDecimalsPipe</title>
<polygon fill="#ffffb3" stroke="black" points="323.75,-122 202.25,-122 202.25,-86 323.75,-86 323.75,-122"/>
<text text-anchor="middle" x="263" y="-99.8" font-family="Times,serif" font-size="14.00">TrimDecimalsPipe</text>
</g>
<!-- TrimDecimalsPipe&#45;&gt;AppModule -->
<g id="edge14" class="edge">
<title>TrimDecimalsPipe&#45;&gt;AppModule</title>
<path fill="none" stroke="black" d="M263,-122.01C263,-144.49 263,-180 263,-180 263,-180 1479.17,-180 1479.17,-180"/>
<polygon fill="black" stroke="black" points="1479.17,-183.5 1489.17,-180 1479.17,-176.5 1479.17,-183.5"/>
</g>
<!-- UpdateProfileComponent -->
<g id="node15" class="node">
<title>UpdateProfileComponent</title>
<polygon fill="#ffffb3" stroke="black" points="183.86,-122 24.14,-122 24.14,-86 183.86,-86 183.86,-122"/>
<text text-anchor="middle" x="104" y="-99.8" font-family="Times,serif" font-size="14.00">UpdateProfileComponent</text>
</g>
<!-- UpdateProfileComponent&#45;&gt;AppModule -->
<g id="edge15" class="edge">
<title>UpdateProfileComponent&#45;&gt;AppModule</title>
<path fill="none" stroke="black" d="M104,-122.15C104,-145.76 104,-184 104,-184 104,-184 1479.07,-184 1479.07,-184"/>
<polygon fill="black" stroke="black" points="1479.07,-187.5 1489.07,-184 1479.07,-180.5 1479.07,-187.5"/>
</g>
<!-- AppComponent  -->
<g id="node22" class="node">
<title>AppComponent </title>
<polygon fill="#80b1d3" stroke="black" points="1585.44,-252 1476.56,-252 1476.56,-216 1585.44,-216 1585.44,-252"/>
<text text-anchor="middle" x="1531" y="-229.8" font-family="Times,serif" font-size="14.00">AppComponent </text>
</g>
<!-- AppModule&#45;&gt;AppComponent  -->
<g id="edge21" class="edge">
<title>AppModule&#45;&gt;AppComponent </title>
<path fill="none" stroke="black" stroke-dasharray="1,5" d="M1531,-187.11C1531,-187.11 1531,-205.99 1531,-205.99"/>
<polygon fill="black" stroke="black" points="1527.5,-205.99 1531,-215.99 1534.5,-205.99 1527.5,-205.99"/>
</g>
<!-- AppRoutingModule -->
<g id="node17" class="node">
<title>AppRoutingModule</title>
<polygon fill="#8dd3c7" stroke="black" points="3439.27,-122 3436.27,-126 3415.27,-126 3412.27,-122 3310.73,-122 3310.73,-86 3439.27,-86 3439.27,-122"/>
<text text-anchor="middle" x="3375" y="-99.8" font-family="Times,serif" font-size="14.00">AppRoutingModule</text>
</g>
<!-- AppRoutingModule&#45;&gt;AppModule -->
<g id="edge16" class="edge">
<title>AppRoutingModule&#45;&gt;AppModule</title>
<path fill="none" stroke="black" d="M3375,-122.15C3375,-145.76 3375,-184 3375,-184 3375,-184 1582.98,-184 1582.98,-184"/>
<polygon fill="black" stroke="black" points="1582.98,-180.5 1572.98,-184 1582.98,-187.5 1582.98,-180.5"/>
</g>
<!-- provideAuth(() =&gt; getAuth()) -->
<g id="node18" class="node">
<title>provideAuth(() =&gt; getAuth())</title>
<polygon fill="#8dd3c7" stroke="black" points="3292.12,-122 3289.12,-126 3268.12,-126 3265.12,-122 3109.88,-122 3109.88,-86 3292.12,-86 3292.12,-122"/>
<text text-anchor="middle" x="3201" y="-99.8" font-family="Times,serif" font-size="14.00">provideAuth(() =&gt; getAuth())</text>
</g>
<!-- provideAuth(() =&gt; getAuth())&#45;&gt;AppModule -->
<g id="edge17" class="edge">
<title>provideAuth(() =&gt; getAuth())&#45;&gt;AppModule</title>
<path fill="none" stroke="black" d="M3201,-122.01C3201,-144.49 3201,-180 3201,-180 3201,-180 1582.7,-180 1582.7,-180"/>
<polygon fill="black" stroke="black" points="1582.7,-176.5 1572.7,-180 1582.7,-183.5 1582.7,-176.5"/>
</g>
<!-- provideFirebaseApp(() =&gt; initializeApp(environment -->
<g id="node19" class="node">
<title>provideFirebaseApp(() =&gt; initializeApp(environment</title>
<polygon fill="#8dd3c7" stroke="black" points="3091.58,-122 3088.58,-126 3067.58,-126 3064.58,-122 2776.42,-122 2776.42,-86 3091.58,-86 3091.58,-122"/>
<text text-anchor="middle" x="2934" y="-99.8" font-family="Times,serif" font-size="14.00">provideFirebaseApp(() =&gt; initializeApp(environment</text>
</g>
<!-- provideFirebaseApp(() =&gt; initializeApp(environment&#45;&gt;AppModule -->
<g id="edge18" class="edge">
<title>provideFirebaseApp(() =&gt; initializeApp(environment&#45;&gt;AppModule</title>
<path fill="none" stroke="black" d="M2934,-122.04C2934,-143.66 2934,-177 2934,-177 2934,-177 1582.99,-177 1582.99,-177"/>
<polygon fill="black" stroke="black" points="1582.99,-173.5 1572.99,-177 1582.99,-180.5 1582.99,-173.5"/>
</g>
<!-- provideFirestore(() =&gt; getFirestore()) -->
<g id="node20" class="node">
<title>provideFirestore(() =&gt; getFirestore())</title>
<polygon fill="#8dd3c7" stroke="black" points="2758.14,-122 2755.14,-126 2734.14,-126 2731.14,-122 2531.86,-122 2531.86,-86 2758.14,-86 2758.14,-122"/>
<text text-anchor="middle" x="2645" y="-99.8" font-family="Times,serif" font-size="14.00">provideFirestore(() =&gt; getFirestore())</text>
</g>
<!-- provideFirestore(() =&gt; getFirestore())&#45;&gt;AppModule -->
<g id="edge19" class="edge">
<title>provideFirestore(() =&gt; getFirestore())&#45;&gt;AppModule</title>
<path fill="none" stroke="black" d="M2645,-122.13C2645,-142.57 2645,-173 2645,-173 2645,-173 1582.97,-173 1582.97,-173"/>
<polygon fill="black" stroke="black" points="1582.97,-169.5 1572.97,-173 1582.97,-176.5 1582.97,-169.5"/>
</g>
<!-- provideStorage(() =&gt; getStorage()) -->
<g id="node21" class="node">
<title>provideStorage(() =&gt; getStorage())</title>
<polygon fill="#8dd3c7" stroke="black" points="2514.15,-122 2511.15,-126 2490.15,-126 2487.15,-122 2301.85,-122 2301.85,-86 2514.15,-86 2514.15,-122"/>
<text text-anchor="middle" x="2408" y="-99.8" font-family="Times,serif" font-size="14.00">provideStorage(() =&gt; getStorage())</text>
</g>
<!-- provideStorage(() =&gt; getStorage())&#45;&gt;AppModule -->
<g id="edge20" class="edge">
<title>provideStorage(() =&gt; getStorage())&#45;&gt;AppModule</title>
<path fill="none" stroke="black" d="M2408,-122.11C2408,-141.34 2408,-169 2408,-169 2408,-169 1582.71,-169 1582.71,-169"/>
<polygon fill="black" stroke="black" points="1582.71,-165.5 1572.71,-169 1582.71,-172.5 1582.71,-165.5"/>
</g>
</g>
</svg>
