<?xml version="1.0" encoding="UTF-8" standalone="no"?>
<!DOCTYPE svg PUBLIC "-//W3C//DTD SVG 1.1//EN"
 "http://www.w3.org/Graphics/SVG/1.1/DTD/svg11.dtd">
<!-- Generated by graphviz version 2.47.0 (20210316.0004)
 -->
<!-- Title: dependencies Pages: 1 -->
<svg width="1545pt" height="284pt"
 viewBox="0.00 0.00 1545.00 284.00" xmlns="http://www.w3.org/2000/svg" xmlns:xlink="http://www.w3.org/1999/xlink">
<g id="graph0" class="graph" transform="scale(1 1) rotate(0) translate(4 280)">
<title>dependencies</title>
<polygon fill="white" stroke="transparent" points="-4,4 -4,-280 1541,-280 1541,4 -4,4"/>
<text text-anchor="start" x="747.51" y="-42.4" font-family="Times-12" font-weight="bold" font-size="14.00">Legend</text>
<polygon fill="#ffffb3" stroke="transparent" points="534.5,-10 534.5,-30 554.5,-30 554.5,-10 534.5,-10"/>
<text text-anchor="start" x="558.13" y="-15.4" font-family="Times-12" font-size="14.00"> &#160;Declarations</text>
<polygon fill="#8dd3c7" stroke="transparent" points="647.5,-10 647.5,-30 667.5,-30 667.5,-10 647.5,-10"/>
<text text-anchor="start" x="671.23" y="-15.4" font-family="Times-12" font-size="14.00"> &#160;Module</text>
<polygon fill="#80b1d3" stroke="transparent" points="733.5,-10 733.5,-30 753.5,-30 753.5,-10 733.5,-10"/>
<text text-anchor="start" x="757.28" y="-15.4" font-family="Times-12" font-size="14.00"> &#160;Bootstrap</text>
<polygon fill="#fdb462" stroke="transparent" points="830.5,-10 830.5,-30 850.5,-30 850.5,-10 830.5,-10"/>
<text text-anchor="start" x="854.17" y="-15.4" font-family="Times-12" font-size="14.00"> &#160;Providers</text>
<polygon fill="#fb8072" stroke="transparent" points="926.5,-10 926.5,-30 946.5,-30 946.5,-10 926.5,-10"/>
<text text-anchor="start" x="950.23" y="-15.4" font-family="Times-12" font-size="14.00"> &#160;Exports</text>
<g id="clust1" class="cluster">
<title>cluster_AppModule</title>
<polygon fill="none" stroke="black" stroke-dasharray="1,5" points="8,-70 8,-268 1529,-268 1529,-70 8,-70"/>
</g>
<g id="clust6" class="cluster">
<title>cluster_AppModule_bootstrap</title>
<polygon fill="none" stroke="black" points="857,-208 857,-260 981,-260 981,-208 857,-208"/>
</g>
<g id="clust4" class="cluster">
<title>cluster_AppModule_imports</title>
<polygon fill="none" stroke="black" points="146,-78 146,-130 1521,-130 1521,-78 146,-78"/>
</g>
<g id="clust2" class="cluster">
<title>cluster_AppModule_declarations</title>
<polygon fill="none" stroke="black" points="16,-78 16,-130 138,-130 138,-78 16,-78"/>
</g>
<!-- AppComponent -->
<g id="node1" class="node">
<title>AppComponent</title>
<polygon fill="#ffffb3" stroke="black" points="129.94,-122 24.06,-122 24.06,-86 129.94,-86 129.94,-122"/>
<text text-anchor="middle" x="77" y="-99.8" font-family="Times,serif" font-size="14.00">AppComponent</text>
</g>
<!-- AppModule -->
<g id="node2" class="node">
<title>AppModule</title>
<polygon fill="#8dd3c7" stroke="black" points="960.66,-187 957.66,-191 936.66,-191 933.66,-187 877.34,-187 877.34,-151 960.66,-151 960.66,-187"/>
<text text-anchor="middle" x="919" y="-164.8" font-family="Times,serif" font-size="14.00">AppModule</text>
</g>
<!-- AppComponent&#45;&gt;AppModule -->
<g id="edge1" class="edge">
<title>AppComponent&#45;&gt;AppModule</title>
<path fill="none" stroke="black" d="M77,-122.29C77,-144.21 77,-178 77,-178 77,-178 867.25,-178 867.25,-178"/>
<polygon fill="black" stroke="black" points="867.25,-181.5 877.25,-178 867.25,-174.5 867.25,-181.5"/>
</g>
<!-- AppComponent  -->
<g id="node10" class="node">
<title>AppComponent </title>
<polygon fill="#80b1d3" stroke="black" points="973.44,-252 864.56,-252 864.56,-216 973.44,-216 973.44,-252"/>
<text text-anchor="middle" x="919" y="-229.8" font-family="Times,serif" font-size="14.00">AppComponent </text>
</g>
<!-- AppModule&#45;&gt;AppComponent  -->
<g id="edge9" class="edge">
<title>AppModule&#45;&gt;AppComponent </title>
<path fill="none" stroke="black" stroke-dasharray="1,5" d="M919,-187.11C919,-187.11 919,-205.99 919,-205.99"/>
<polygon fill="black" stroke="black" points="915.5,-205.99 919,-215.99 922.5,-205.99 915.5,-205.99"/>
</g>
<!-- AppRoutingModule -->
<g id="node3" class="node">
<title>AppRoutingModule</title>
<polygon fill="#8dd3c7" stroke="black" points="1513.27,-122 1510.27,-126 1489.27,-126 1486.27,-122 1384.73,-122 1384.73,-86 1513.27,-86 1513.27,-122"/>
<text text-anchor="middle" x="1449" y="-99.8" font-family="Times,serif" font-size="14.00">AppRoutingModule</text>
</g>
<!-- AppRoutingModule&#45;&gt;AppModule -->
<g id="edge2" class="edge">
<title>AppRoutingModule&#45;&gt;AppModule</title>
<path fill="none" stroke="black" d="M1449,-122.01C1449,-144.49 1449,-180 1449,-180 1449,-180 971.03,-180 971.03,-180"/>
<polygon fill="black" stroke="black" points="971.03,-176.5 961.03,-180 971.03,-183.5 971.03,-176.5"/>
</g>
<!-- CoreModule -->
<g id="node4" class="node">
<title>CoreModule</title>
<polygon fill="#8dd3c7" stroke="black" points="1366.26,-122 1363.26,-126 1342.26,-126 1339.26,-122 1279.74,-122 1279.74,-86 1366.26,-86 1366.26,-122"/>
<text text-anchor="middle" x="1323" y="-99.8" font-family="Times,serif" font-size="14.00">CoreModule</text>
</g>
<!-- CoreModule&#45;&gt;AppModule -->
<g id="edge3" class="edge">
<title>CoreModule&#45;&gt;AppModule</title>
<path fill="none" stroke="black" d="M1323,-122.13C1323,-142.57 1323,-173 1323,-173 1323,-173 970.71,-173 970.71,-173"/>
<polygon fill="black" stroke="black" points="970.71,-169.5 960.71,-173 970.71,-176.5 970.71,-169.5"/>
</g>
<!-- SharedModule -->
<g id="node5" class="node">
<title>SharedModule</title>
<polygon fill="#8dd3c7" stroke="black" points="1261.42,-122 1258.42,-126 1237.42,-126 1234.42,-122 1162.58,-122 1162.58,-86 1261.42,-86 1261.42,-122"/>
<text text-anchor="middle" x="1212" y="-99.8" font-family="Times,serif" font-size="14.00">SharedModule</text>
</g>
<!-- SharedModule&#45;&gt;AppModule -->
<g id="edge4" class="edge">
<title>SharedModule&#45;&gt;AppModule</title>
<path fill="none" stroke="black" d="M1212,-122.27C1212,-140.56 1212,-166 1212,-166 1212,-166 970.67,-166 970.67,-166"/>
<polygon fill="black" stroke="black" points="970.67,-162.5 960.67,-166 970.67,-169.5 970.67,-162.5"/>
</g>
<!-- provideAuth(() =&gt; getAuth()) -->
<g id="node6" class="node">
<title>provideAuth(() =&gt; getAuth())</title>
<polygon fill="#8dd3c7" stroke="black" points="1144.12,-122 1141.12,-126 1120.12,-126 1117.12,-122 961.88,-122 961.88,-86 1144.12,-86 1144.12,-122"/>
<text text-anchor="middle" x="1053" y="-99.8" font-family="Times,serif" font-size="14.00">provideAuth(() =&gt; getAuth())</text>
</g>
<!-- provideAuth(() =&gt; getAuth())&#45;&gt;AppModule -->
<g id="edge5" class="edge">
<title>provideAuth(() =&gt; getAuth())&#45;&gt;AppModule</title>
<path fill="none" stroke="black" d="M967.58,-122.01C967.58,-138.05 967.58,-159 967.58,-159 967.58,-159 966.9,-159 966.9,-159"/>
<polygon fill="black" stroke="black" points="970.83,-155.5 960.83,-159 970.83,-162.5 970.83,-155.5"/>
</g>
<!-- provideFirebaseApp(() =&gt; initializeApp(environment -->
<g id="node7" class="node">
<title>provideFirebaseApp(() =&gt; initializeApp(environment</title>
<polygon fill="#8dd3c7" stroke="black" points="943.58,-122 940.58,-126 919.58,-126 916.58,-122 628.42,-122 628.42,-86 943.58,-86 943.58,-122"/>
<text text-anchor="middle" x="786" y="-99.8" font-family="Times,serif" font-size="14.00">provideFirebaseApp(() =&gt; initializeApp(environment</text>
</g>
<!-- provideFirebaseApp(() =&gt; initializeApp(environment&#45;&gt;AppModule -->
<g id="edge6" class="edge">
<title>provideFirebaseApp(() =&gt; initializeApp(environment&#45;&gt;AppModule</title>
<path fill="none" stroke="black" d="M910.48,-122.11C910.48,-122.11 910.48,-140.99 910.48,-140.99"/>
<polygon fill="black" stroke="black" points="906.98,-140.99 910.48,-150.99 913.98,-140.99 906.98,-140.99"/>
</g>
<!-- provideFirestore(() =&gt; getFirestore()) -->
<g id="node8" class="node">
<title>provideFirestore(() =&gt; getFirestore())</title>
<polygon fill="#8dd3c7" stroke="black" points="610.14,-122 607.14,-126 586.14,-126 583.14,-122 383.86,-122 383.86,-86 610.14,-86 610.14,-122"/>
<text text-anchor="middle" x="497" y="-99.8" font-family="Times,serif" font-size="14.00">provideFirestore(() =&gt; getFirestore())</text>
</g>
<!-- provideFirestore(() =&gt; getFirestore())&#45;&gt;AppModule -->
<g id="edge7" class="edge">
<title>provideFirestore(() =&gt; getFirestore())&#45;&gt;AppModule</title>
<path fill="none" stroke="black" d="M497,-122.03C497,-138.4 497,-160 497,-160 497,-160 866.99,-160 866.99,-160"/>
<polygon fill="black" stroke="black" points="866.99,-163.5 876.99,-160 866.99,-156.5 866.99,-163.5"/>
</g>
<!-- provideStorage(() =&gt; getStorage()) -->
<g id="node9" class="node">
<title>provideStorage(() =&gt; getStorage())</title>
<polygon fill="#8dd3c7" stroke="black" points="366.15,-122 363.15,-126 342.15,-126 339.15,-122 153.85,-122 153.85,-86 366.15,-86 366.15,-122"/>
<text text-anchor="middle" x="260" y="-99.8" font-family="Times,serif" font-size="14.00">provideStorage(() =&gt; getStorage())</text>
</g>
<!-- provideStorage(() =&gt; getStorage())&#45;&gt;AppModule -->
<g id="edge8" class="edge">
<title>provideStorage(() =&gt; getStorage())&#45;&gt;AppModule</title>
<path fill="none" stroke="black" d="M260,-122.11C260,-141.34 260,-169 260,-169 260,-169 867.28,-169 867.28,-169"/>
<polygon fill="black" stroke="black" points="867.28,-172.5 877.28,-169 867.28,-165.5 867.28,-172.5"/>
</g>
</g>
</svg>
