<?xml version="1.0" encoding="UTF-8" standalone="no"?>
<!DOCTYPE svg PUBLIC "-//W3C//DTD SVG 1.1//EN"
 "http://www.w3.org/Graphics/SVG/1.1/DTD/svg11.dtd">
<!-- Generated by graphviz version 2.47.0 (20210316.0004)
 -->
<!-- Title: dependencies Pages: 1 -->
<svg width="1545pt" height="284pt"
 viewBox="0.00 0.00 1545.00 284.00" xmlns="http://www.w3.org/2000/svg" xmlns:xlink="http://www.w3.org/1999/xlink">
<g id="graph0" class="graph" transform="scale(1 1) rotate(0) translate(4 280)">
<title>dependencies</title>
<polygon fill="white" stroke="transparent" points="-4,4 -4,-280 1541,-280 1541,4 -4,4"/>
<text text-anchor="start" x="747.51" y="-42.4" font-family="Times-12" font-weight="bold" font-size="14.00">Legend</text>
<polygon fill="#ffffb3" stroke="transparent" points="534.5,-10 534.5,-30 554.5,-30 554.5,-10 534.5,-10"/>
<text text-anchor="start" x="558.13" y="-15.4" font-family="Times-12" font-size="14.00"> &#160;Declarations</text>
<polygon fill="#8dd3c7" stroke="transparent" points="647.5,-10 647.5,-30 667.5,-30 667.5,-10 647.5,-10"/>
<text text-anchor="start" x="671.23" y="-15.4" font-family="Times-12" font-size="14.00"> &#160;Module</text>
<polygon fill="#80b1d3" stroke="transparent" points="733.5,-10 733.5,-30 753.5,-30 753.5,-10 733.5,-10"/>
<text text-anchor="start" x="757.28" y="-15.4" font-family="Times-12" font-size="14.00"> &#160;Bootstrap</text>
<polygon fill="#fdb462" stroke="transparent" points="830.5,-10 830.5,-30 850.5,-30 850.5,-10 830.5,-10"/>
<text text-anchor="start" x="854.17" y="-15.4" font-family="Times-12" font-size="14.00"> &#160;Providers</text>
<polygon fill="#fb8072" stroke="transparent" points="926.5,-10 926.5,-30 946.5,-30 946.5,-10 926.5,-10"/>
<text text-anchor="start" x="950.23" y="-15.4" font-family="Times-12" font-size="14.00"> &#160;Exports</text>
<g id="clust1" class="cluster">
<title>cluster_AppModule</title>
<polygon fill="none" stroke="black" stroke-dasharray="1,5" points="8,-70 8,-268 1529,-268 1529,-70 8,-70"/>
</g>
<g id="clust2" class="cluster">
<title>cluster_AppModule_declarations</title>
<polygon fill="none" stroke="black" points="1399,-78 1399,-130 1521,-130 1521,-78 1399,-78"/>
</g>
<g id="clust6" class="cluster">
<title>cluster_AppModule_bootstrap</title>
<polygon fill="none" stroke="black" points="940,-208 940,-260 1064,-260 1064,-208 940,-208"/>
</g>
<g id="clust4" class="cluster">
<title>cluster_AppModule_imports</title>
<polygon fill="none" stroke="black" points="16,-78 16,-130 1391,-130 1391,-78 16,-78"/>
</g>
<!-- AppComponent -->
<g id="node1" class="node">
<title>AppComponent</title>
<polygon fill="#ffffb3" stroke="black" points="1512.94,-122 1407.06,-122 1407.06,-86 1512.94,-86 1512.94,-122"/>
<text text-anchor="middle" x="1460" y="-99.8" font-family="Times,serif" font-size="14.00">AppComponent</text>
</g>
<!-- AppModule -->
<g id="node2" class="node">
<title>AppModule</title>
<polygon fill="#8dd3c7" stroke="black" points="1043.66,-187 1040.66,-191 1019.66,-191 1016.66,-187 960.34,-187 960.34,-151 1043.66,-151 1043.66,-187"/>
<text text-anchor="middle" x="1002" y="-164.8" font-family="Times,serif" font-size="14.00">AppModule</text>
</g>
<!-- AppComponent&#45;&gt;AppModule -->
<g id="edge1" class="edge">
<title>AppComponent&#45;&gt;AppModule</title>
<path fill="none" stroke="black" d="M1460,-122.29C1460,-144.21 1460,-178 1460,-178 1460,-178 1053.86,-178 1053.86,-178"/>
<polygon fill="black" stroke="black" points="1053.86,-174.5 1043.86,-178 1053.86,-181.5 1053.86,-174.5"/>
</g>
<!-- AppComponent  -->
<g id="node10" class="node">
<title>AppComponent </title>
<polygon fill="#80b1d3" stroke="black" points="1056.44,-252 947.56,-252 947.56,-216 1056.44,-216 1056.44,-252"/>
<text text-anchor="middle" x="1002" y="-229.8" font-family="Times,serif" font-size="14.00">AppComponent </text>
</g>
<!-- AppModule&#45;&gt;AppComponent  -->
<g id="edge9" class="edge">
<title>AppModule&#45;&gt;AppComponent </title>
<path fill="none" stroke="black" stroke-dasharray="1,5" d="M1002,-187.11C1002,-187.11 1002,-205.99 1002,-205.99"/>
<polygon fill="black" stroke="black" points="998.5,-205.99 1002,-215.99 1005.5,-205.99 998.5,-205.99"/>
</g>
<!-- AppRoutingModule -->
<g id="node3" class="node">
<title>AppRoutingModule</title>
<polygon fill="#8dd3c7" stroke="black" points="1383.27,-122 1380.27,-126 1359.27,-126 1356.27,-122 1254.73,-122 1254.73,-86 1383.27,-86 1383.27,-122"/>
<text text-anchor="middle" x="1319" y="-99.8" font-family="Times,serif" font-size="14.00">AppRoutingModule</text>
</g>
<!-- AppRoutingModule&#45;&gt;AppModule -->
<g id="edge2" class="edge">
<title>AppRoutingModule&#45;&gt;AppModule</title>
<path fill="none" stroke="black" d="M1319,-122.11C1319,-141.34 1319,-169 1319,-169 1319,-169 1053.77,-169 1053.77,-169"/>
<polygon fill="black" stroke="black" points="1053.77,-165.5 1043.77,-169 1053.77,-172.5 1053.77,-165.5"/>
</g>
<!-- CoreModule -->
<g id="node4" class="node">
<title>CoreModule</title>
<polygon fill="#8dd3c7" stroke="black" points="1236.26,-122 1233.26,-126 1212.26,-126 1209.26,-122 1149.74,-122 1149.74,-86 1236.26,-86 1236.26,-122"/>
<text text-anchor="middle" x="1193" y="-99.8" font-family="Times,serif" font-size="14.00">CoreModule</text>
</g>
<!-- CoreModule&#45;&gt;AppModule -->
<g id="edge3" class="edge">
<title>CoreModule&#45;&gt;AppModule</title>
<path fill="none" stroke="black" d="M1193,-122.03C1193,-138.4 1193,-160 1193,-160 1193,-160 1053.92,-160 1053.92,-160"/>
<polygon fill="black" stroke="black" points="1053.92,-156.5 1043.92,-160 1053.92,-163.5 1053.92,-156.5"/>
</g>
<!-- SharedModule -->
<g id="node5" class="node">
<title>SharedModule</title>
<polygon fill="#8dd3c7" stroke="black" points="1131.42,-122 1128.42,-126 1107.42,-126 1104.42,-122 1032.58,-122 1032.58,-86 1131.42,-86 1131.42,-122"/>
<text text-anchor="middle" x="1082" y="-99.8" font-family="Times,serif" font-size="14.00">SharedModule</text>
</g>
<!-- SharedModule&#45;&gt;AppModule -->
<g id="edge4" class="edge">
<title>SharedModule&#45;&gt;AppModule</title>
<path fill="none" stroke="black" d="M1038.31,-122.11C1038.31,-122.11 1038.31,-140.99 1038.31,-140.99"/>
<polygon fill="black" stroke="black" points="1034.81,-140.99 1038.31,-150.99 1041.81,-140.99 1034.81,-140.99"/>
</g>
<!-- provideAuth(() =&gt; getAuth()) -->
<g id="node6" class="node">
<title>provideAuth(() =&gt; getAuth())</title>
<polygon fill="#8dd3c7" stroke="black" points="1014.12,-122 1011.12,-126 990.12,-126 987.12,-122 831.88,-122 831.88,-86 1014.12,-86 1014.12,-122"/>
<text text-anchor="middle" x="923" y="-99.8" font-family="Times,serif" font-size="14.00">provideAuth(() =&gt; getAuth())</text>
</g>
<!-- provideAuth(() =&gt; getAuth())&#45;&gt;AppModule -->
<g id="edge5" class="edge">
<title>provideAuth(() =&gt; getAuth())&#45;&gt;AppModule</title>
<path fill="none" stroke="black" d="M987.24,-122.11C987.24,-122.11 987.24,-140.99 987.24,-140.99"/>
<polygon fill="black" stroke="black" points="983.74,-140.99 987.24,-150.99 990.74,-140.99 983.74,-140.99"/>
</g>
<!-- provideFirebaseApp(() =&gt; initializeApp(environment -->
<g id="node7" class="node">
<title>provideFirebaseApp(() =&gt; initializeApp(environment</title>
<polygon fill="#8dd3c7" stroke="black" points="813.58,-122 810.58,-126 789.58,-126 786.58,-122 498.42,-122 498.42,-86 813.58,-86 813.58,-122"/>
<text text-anchor="middle" x="656" y="-99.8" font-family="Times,serif" font-size="14.00">provideFirebaseApp(() =&gt; initializeApp(environment</text>
</g>
<!-- provideFirebaseApp(() =&gt; initializeApp(environment&#45;&gt;AppModule -->
<g id="edge6" class="edge">
<title>provideFirebaseApp(() =&gt; initializeApp(environment&#45;&gt;AppModule</title>
<path fill="none" stroke="black" d="M656,-122.03C656,-138.4 656,-160 656,-160 656,-160 950.26,-160 950.26,-160"/>
<polygon fill="black" stroke="black" points="950.26,-163.5 960.26,-160 950.26,-156.5 950.26,-163.5"/>
</g>
<!-- provideFirestore(() =&gt; getFirestore()) -->
<g id="node8" class="node">
<title>provideFirestore(() =&gt; getFirestore())</title>
<polygon fill="#8dd3c7" stroke="black" points="480.14,-122 477.14,-126 456.14,-126 453.14,-122 253.86,-122 253.86,-86 480.14,-86 480.14,-122"/>
<text text-anchor="middle" x="367" y="-99.8" font-family="Times,serif" font-size="14.00">provideFirestore(() =&gt; getFirestore())</text>
</g>
<!-- provideFirestore(() =&gt; getFirestore())&#45;&gt;AppModule -->
<g id="edge7" class="edge">
<title>provideFirestore(() =&gt; getFirestore())&#45;&gt;AppModule</title>
<path fill="none" stroke="black" d="M367,-122.11C367,-141.34 367,-169 367,-169 367,-169 950.34,-169 950.34,-169"/>
<polygon fill="black" stroke="black" points="950.34,-172.5 960.34,-169 950.34,-165.5 950.34,-172.5"/>
</g>
<!-- provideStorage(() =&gt; getStorage()) -->
<g id="node9" class="node">
<title>provideStorage(() =&gt; getStorage())</title>
<polygon fill="#8dd3c7" stroke="black" points="236.15,-122 233.15,-126 212.15,-126 209.15,-122 23.85,-122 23.85,-86 236.15,-86 236.15,-122"/>
<text text-anchor="middle" x="130" y="-99.8" font-family="Times,serif" font-size="14.00">provideStorage(() =&gt; getStorage())</text>
</g>
<!-- provideStorage(() =&gt; getStorage())&#45;&gt;AppModule -->
<g id="edge8" class="edge">
<title>provideStorage(() =&gt; getStorage())&#45;&gt;AppModule</title>
<path fill="none" stroke="black" d="M130,-122.29C130,-144.21 130,-178 130,-178 130,-178 950.24,-178 950.24,-178"/>
<polygon fill="black" stroke="black" points="950.24,-181.5 960.24,-178 950.24,-174.5 950.24,-181.5"/>
</g>
</g>
</svg>
