<?xml version="1.0" encoding="UTF-8" standalone="no"?>
<!DOCTYPE svg PUBLIC "-//W3C//DTD SVG 1.1//EN"
 "http://www.w3.org/Graphics/SVG/1.1/DTD/svg11.dtd">
<!-- Generated by graphviz version 2.47.0 (20210316.0004)
 -->
<!-- Title: dependencies Pages: 1 -->
<svg width="823pt" height="211pt"
 viewBox="0.00 0.00 823.00 211.00" xmlns="http://www.w3.org/2000/svg" xmlns:xlink="http://www.w3.org/1999/xlink">
<g id="graph0" class="graph" transform="scale(1 1) rotate(0) translate(4 207)">
<title>dependencies</title>
<polygon fill="white" stroke="transparent" points="-4,4 -4,-207 819,-207 819,4 -4,4"/>
<text text-anchor="start" x="386.51" y="-42.4" font-family="Times-12" font-weight="bold" font-size="14.00">Legend</text>
<polygon fill="#ffffb3" stroke="transparent" points="173.5,-10 173.5,-30 193.5,-30 193.5,-10 173.5,-10"/>
<text text-anchor="start" x="197.13" y="-15.4" font-family="Times-12" font-size="14.00"> &#160;Declarations</text>
<polygon fill="#8dd3c7" stroke="transparent" points="286.5,-10 286.5,-30 306.5,-30 306.5,-10 286.5,-10"/>
<text text-anchor="start" x="310.23" y="-15.4" font-family="Times-12" font-size="14.00"> &#160;Module</text>
<polygon fill="#80b1d3" stroke="transparent" points="372.5,-10 372.5,-30 392.5,-30 392.5,-10 372.5,-10"/>
<text text-anchor="start" x="396.28" y="-15.4" font-family="Times-12" font-size="14.00"> &#160;Bootstrap</text>
<polygon fill="#fdb462" stroke="transparent" points="469.5,-10 469.5,-30 489.5,-30 489.5,-10 469.5,-10"/>
<text text-anchor="start" x="493.17" y="-15.4" font-family="Times-12" font-size="14.00"> &#160;Providers</text>
<polygon fill="#fb8072" stroke="transparent" points="565.5,-10 565.5,-30 585.5,-30 585.5,-10 565.5,-10"/>
<text text-anchor="start" x="589.23" y="-15.4" font-family="Times-12" font-size="14.00"> &#160;Exports</text>
<g id="clust1" class="cluster">
<title>cluster_PagesModule</title>
<polygon fill="none" stroke="black" stroke-dasharray="1,5" points="8,-70 8,-195 807,-195 807,-70 8,-70"/>
</g>
<g id="clust6" class="cluster">
<title>cluster_PagesModule_imports</title>
<polygon fill="none" stroke="black" points="529,-78 529,-130 799,-130 799,-78 529,-78"/>
</g>
<g id="clust2" class="cluster">
<title>cluster_PagesModule_declarations</title>
<polygon fill="none" stroke="black" points="16,-78 16,-130 521,-130 521,-78 16,-78"/>
</g>
<!-- AboutUsComponent -->
<g id="node1" class="node">
<title>AboutUsComponent</title>
<polygon fill="#ffffb3" stroke="black" points="512.88,-122 381.12,-122 381.12,-86 512.88,-86 512.88,-122"/>
<text text-anchor="middle" x="447" y="-99.8" font-family="Times,serif" font-size="14.00">AboutUsComponent</text>
</g>
<!-- PagesModule -->
<g id="node4" class="node">
<title>PagesModule</title>
<polygon fill="#8dd3c7" stroke="black" points="493.21,-187 490.21,-191 469.21,-191 466.21,-187 400.79,-187 400.79,-151 493.21,-151 493.21,-187"/>
<text text-anchor="middle" x="447" y="-164.8" font-family="Times,serif" font-size="14.00">PagesModule</text>
</g>
<!-- AboutUsComponent&#45;&gt;PagesModule -->
<g id="edge1" class="edge">
<title>AboutUsComponent&#45;&gt;PagesModule</title>
<path fill="none" stroke="black" d="M447,-122.11C447,-122.11 447,-140.99 447,-140.99"/>
<polygon fill="black" stroke="black" points="443.5,-140.99 447,-150.99 450.5,-140.99 443.5,-140.99"/>
</g>
<!-- LandingPageComponent -->
<g id="node2" class="node">
<title>LandingPageComponent</title>
<polygon fill="#ffffb3" stroke="black" points="362.7,-122 207.3,-122 207.3,-86 362.7,-86 362.7,-122"/>
<text text-anchor="middle" x="285" y="-99.8" font-family="Times,serif" font-size="14.00">LandingPageComponent</text>
</g>
<!-- LandingPageComponent&#45;&gt;PagesModule -->
<g id="edge2" class="edge">
<title>LandingPageComponent&#45;&gt;PagesModule</title>
<path fill="none" stroke="black" d="M285,-122.02C285,-139.37 285,-163 285,-163 285,-163 390.58,-163 390.58,-163"/>
<polygon fill="black" stroke="black" points="390.58,-166.5 400.58,-163 390.58,-159.5 390.58,-166.5"/>
</g>
<!-- PageNotFoundComponent -->
<g id="node3" class="node">
<title>PageNotFoundComponent</title>
<polygon fill="#ffffb3" stroke="black" points="189.82,-122 24.18,-122 24.18,-86 189.82,-86 189.82,-122"/>
<text text-anchor="middle" x="107" y="-99.8" font-family="Times,serif" font-size="14.00">PageNotFoundComponent</text>
</g>
<!-- PageNotFoundComponent&#45;&gt;PagesModule -->
<g id="edge3" class="edge">
<title>PageNotFoundComponent&#45;&gt;PagesModule</title>
<path fill="none" stroke="black" d="M107,-122.28C107,-143.32 107,-175 107,-175 107,-175 390.79,-175 390.79,-175"/>
<polygon fill="black" stroke="black" points="390.79,-178.5 400.79,-175 390.79,-171.5 390.79,-178.5"/>
</g>
<!-- PagesRoutingModule -->
<g id="node5" class="node">
<title>PagesRoutingModule</title>
<polygon fill="#8dd3c7" stroke="black" points="790.82,-122 787.82,-126 766.82,-126 763.82,-122 653.18,-122 653.18,-86 790.82,-86 790.82,-122"/>
<text text-anchor="middle" x="722" y="-99.8" font-family="Times,serif" font-size="14.00">PagesRoutingModule</text>
</g>
<!-- PagesRoutingModule&#45;&gt;PagesModule -->
<g id="edge4" class="edge">
<title>PagesRoutingModule&#45;&gt;PagesModule</title>
<path fill="none" stroke="black" d="M722,-122.28C722,-143.32 722,-175 722,-175 722,-175 503.34,-175 503.34,-175"/>
<polygon fill="black" stroke="black" points="503.34,-171.5 493.34,-175 503.34,-178.5 503.34,-171.5"/>
</g>
<!-- SharedModule -->
<g id="node6" class="node">
<title>SharedModule</title>
<polygon fill="#8dd3c7" stroke="black" points="635.42,-122 632.42,-126 611.42,-126 608.42,-122 536.58,-122 536.58,-86 635.42,-86 635.42,-122"/>
<text text-anchor="middle" x="586" y="-99.8" font-family="Times,serif" font-size="14.00">SharedModule</text>
</g>
<!-- SharedModule&#45;&gt;PagesModule -->
<g id="edge5" class="edge">
<title>SharedModule&#45;&gt;PagesModule</title>
<path fill="none" stroke="black" d="M586,-122.02C586,-139.37 586,-163 586,-163 586,-163 503.28,-163 503.28,-163"/>
<polygon fill="black" stroke="black" points="503.29,-159.5 493.28,-163 503.28,-166.5 503.29,-159.5"/>
</g>
</g>
</svg>
