<?xml version="1.0" encoding="UTF-8" standalone="no"?>
<!DOCTYPE svg PUBLIC "-//W3C//DTD SVG 1.1//EN"
 "http://www.w3.org/Graphics/SVG/1.1/DTD/svg11.dtd">
<!-- Generated by graphviz version 2.47.0 (20210316.0004)
 -->
<!-- Title: dependencies Pages: 1 -->
<svg width="823pt" height="211pt"
 viewBox="0.00 0.00 823.00 211.00" xmlns="http://www.w3.org/2000/svg" xmlns:xlink="http://www.w3.org/1999/xlink">
<g id="graph0" class="graph" transform="scale(1 1) rotate(0) translate(4 207)">
<title>dependencies</title>
<polygon fill="white" stroke="transparent" points="-4,4 -4,-207 819,-207 819,4 -4,4"/>
<text text-anchor="start" x="386.51" y="-42.4" font-family="Times-12" font-weight="bold" font-size="14.00">Legend</text>
<polygon fill="#ffffb3" stroke="transparent" points="173.5,-10 173.5,-30 193.5,-30 193.5,-10 173.5,-10"/>
<text text-anchor="start" x="197.13" y="-15.4" font-family="Times-12" font-size="14.00"> &#160;Declarations</text>
<polygon fill="#8dd3c7" stroke="transparent" points="286.5,-10 286.5,-30 306.5,-30 306.5,-10 286.5,-10"/>
<text text-anchor="start" x="310.23" y="-15.4" font-family="Times-12" font-size="14.00"> &#160;Module</text>
<polygon fill="#80b1d3" stroke="transparent" points="372.5,-10 372.5,-30 392.5,-30 392.5,-10 372.5,-10"/>
<text text-anchor="start" x="396.28" y="-15.4" font-family="Times-12" font-size="14.00"> &#160;Bootstrap</text>
<polygon fill="#fdb462" stroke="transparent" points="469.5,-10 469.5,-30 489.5,-30 489.5,-10 469.5,-10"/>
<text text-anchor="start" x="493.17" y="-15.4" font-family="Times-12" font-size="14.00"> &#160;Providers</text>
<polygon fill="#fb8072" stroke="transparent" points="565.5,-10 565.5,-30 585.5,-30 585.5,-10 565.5,-10"/>
<text text-anchor="start" x="589.23" y="-15.4" font-family="Times-12" font-size="14.00"> &#160;Exports</text>
<g id="clust1" class="cluster">
<title>cluster_PagesModule</title>
<polygon fill="none" stroke="black" stroke-dasharray="1,5" points="8,-70 8,-195 807,-195 807,-70 8,-70"/>
</g>
<g id="clust2" class="cluster">
<title>cluster_PagesModule_declarations</title>
<polygon fill="none" stroke="black" points="294,-78 294,-130 799,-130 799,-78 294,-78"/>
</g>
<g id="clust6" class="cluster">
<title>cluster_PagesModule_imports</title>
<polygon fill="none" stroke="black" points="16,-78 16,-130 286,-130 286,-78 16,-78"/>
</g>
<!-- AboutUsComponent -->
<g id="node1" class="node">
<title>AboutUsComponent</title>
<polygon fill="#ffffb3" stroke="black" points="790.88,-122 659.12,-122 659.12,-86 790.88,-86 790.88,-122"/>
<text text-anchor="middle" x="725" y="-99.8" font-family="Times,serif" font-size="14.00">AboutUsComponent</text>
</g>
<!-- PagesModule -->
<g id="node4" class="node">
<title>PagesModule</title>
<polygon fill="#8dd3c7" stroke="black" points="431.21,-187 428.21,-191 407.21,-191 404.21,-187 338.79,-187 338.79,-151 431.21,-151 431.21,-187"/>
<text text-anchor="middle" x="385" y="-164.8" font-family="Times,serif" font-size="14.00">PagesModule</text>
</g>
<!-- AboutUsComponent&#45;&gt;PagesModule -->
<g id="edge1" class="edge">
<title>AboutUsComponent&#45;&gt;PagesModule</title>
<path fill="none" stroke="black" d="M725,-122.28C725,-143.32 725,-175 725,-175 725,-175 441.21,-175 441.21,-175"/>
<polygon fill="black" stroke="black" points="441.21,-171.5 431.21,-175 441.21,-178.5 441.21,-171.5"/>
</g>
<!-- LandingPageComponent -->
<g id="node2" class="node">
<title>LandingPageComponent</title>
<polygon fill="#ffffb3" stroke="black" points="640.7,-122 485.3,-122 485.3,-86 640.7,-86 640.7,-122"/>
<text text-anchor="middle" x="563" y="-99.8" font-family="Times,serif" font-size="14.00">LandingPageComponent</text>
</g>
<!-- LandingPageComponent&#45;&gt;PagesModule -->
<g id="edge2" class="edge">
<title>LandingPageComponent&#45;&gt;PagesModule</title>
<path fill="none" stroke="black" d="M563,-122.02C563,-139.37 563,-163 563,-163 563,-163 441.3,-163 441.3,-163"/>
<polygon fill="black" stroke="black" points="441.3,-159.5 431.3,-163 441.3,-166.5 441.3,-159.5"/>
</g>
<!-- PageNotFoundComponent -->
<g id="node3" class="node">
<title>PageNotFoundComponent</title>
<polygon fill="#ffffb3" stroke="black" points="467.82,-122 302.18,-122 302.18,-86 467.82,-86 467.82,-122"/>
<text text-anchor="middle" x="385" y="-99.8" font-family="Times,serif" font-size="14.00">PageNotFoundComponent</text>
</g>
<!-- PageNotFoundComponent&#45;&gt;PagesModule -->
<g id="edge3" class="edge">
<title>PageNotFoundComponent&#45;&gt;PagesModule</title>
<path fill="none" stroke="black" d="M385,-122.11C385,-122.11 385,-140.99 385,-140.99"/>
<polygon fill="black" stroke="black" points="381.5,-140.99 385,-150.99 388.5,-140.99 381.5,-140.99"/>
</g>
<!-- PagesRoutingModule -->
<g id="node5" class="node">
<title>PagesRoutingModule</title>
<polygon fill="#8dd3c7" stroke="black" points="277.82,-122 274.82,-126 253.82,-126 250.82,-122 140.18,-122 140.18,-86 277.82,-86 277.82,-122"/>
<text text-anchor="middle" x="209" y="-99.8" font-family="Times,serif" font-size="14.00">PagesRoutingModule</text>
</g>
<!-- PagesRoutingModule&#45;&gt;PagesModule -->
<g id="edge4" class="edge">
<title>PagesRoutingModule&#45;&gt;PagesModule</title>
<path fill="none" stroke="black" d="M209,-122.02C209,-139.37 209,-163 209,-163 209,-163 328.76,-163 328.76,-163"/>
<polygon fill="black" stroke="black" points="328.76,-166.5 338.76,-163 328.76,-159.5 328.76,-166.5"/>
</g>
<!-- SharedModule -->
<g id="node6" class="node">
<title>SharedModule</title>
<polygon fill="#8dd3c7" stroke="black" points="122.42,-122 119.42,-126 98.42,-126 95.42,-122 23.58,-122 23.58,-86 122.42,-86 122.42,-122"/>
<text text-anchor="middle" x="73" y="-99.8" font-family="Times,serif" font-size="14.00">SharedModule</text>
</g>
<!-- SharedModule&#45;&gt;PagesModule -->
<g id="edge5" class="edge">
<title>SharedModule&#45;&gt;PagesModule</title>
<path fill="none" stroke="black" d="M73,-122.28C73,-143.32 73,-175 73,-175 73,-175 328.63,-175 328.63,-175"/>
<polygon fill="black" stroke="black" points="328.63,-178.5 338.63,-175 328.63,-171.5 328.63,-178.5"/>
</g>
</g>
</svg>
