<?xml version="1.0" encoding="UTF-8" standalone="no"?>
<!DOCTYPE svg PUBLIC "-//W3C//DTD SVG 1.1//EN"
 "http://www.w3.org/Graphics/SVG/1.1/DTD/svg11.dtd">
<!-- Generated by graphviz version 2.47.0 (20210316.0004)
 -->
<!-- Title: dependencies Pages: 1 -->
<svg width="622pt" height="211pt"
 viewBox="0.00 0.00 622.00 211.00" xmlns="http://www.w3.org/2000/svg" xmlns:xlink="http://www.w3.org/1999/xlink">
<g id="graph0" class="graph" transform="scale(1 1) rotate(0) translate(4 207)">
<title>dependencies</title>
<polygon fill="white" stroke="transparent" points="-4,4 -4,-207 618,-207 618,4 -4,4"/>
<text text-anchor="start" x="286.01" y="-42.4" font-family="Times-12" font-weight="bold" font-size="14.00">Legend</text>
<polygon fill="#ffffb3" stroke="transparent" points="73,-10 73,-30 93,-30 93,-10 73,-10"/>
<text text-anchor="start" x="96.63" y="-15.4" font-family="Times-12" font-size="14.00"> &#160;Declarations</text>
<polygon fill="#8dd3c7" stroke="transparent" points="186,-10 186,-30 206,-30 206,-10 186,-10"/>
<text text-anchor="start" x="209.73" y="-15.4" font-family="Times-12" font-size="14.00"> &#160;Module</text>
<polygon fill="#80b1d3" stroke="transparent" points="272,-10 272,-30 292,-30 292,-10 272,-10"/>
<text text-anchor="start" x="295.78" y="-15.4" font-family="Times-12" font-size="14.00"> &#160;Bootstrap</text>
<polygon fill="#fdb462" stroke="transparent" points="369,-10 369,-30 389,-30 389,-10 369,-10"/>
<text text-anchor="start" x="392.67" y="-15.4" font-family="Times-12" font-size="14.00"> &#160;Providers</text>
<polygon fill="#fb8072" stroke="transparent" points="465,-10 465,-30 485,-30 485,-10 465,-10"/>
<text text-anchor="start" x="488.73" y="-15.4" font-family="Times-12" font-size="14.00"> &#160;Exports</text>
<g id="clust1" class="cluster">
<title>cluster_TrackingModule</title>
<polygon fill="none" stroke="black" stroke-dasharray="1,5" points="8,-70 8,-195 606,-195 606,-70 8,-70"/>
</g>
<g id="clust5" class="cluster">
<title>cluster_TrackingModule_imports</title>
<polygon fill="none" stroke="black" points="310,-78 310,-130 598,-130 598,-78 310,-78"/>
</g>
<g id="clust2" class="cluster">
<title>cluster_TrackingModule_declarations</title>
<polygon fill="none" stroke="black" points="16,-78 16,-130 302,-130 302,-78 16,-78"/>
</g>
<!-- DrinkListComponent -->
<g id="node1" class="node">
<title>DrinkListComponent</title>
<polygon fill="#ffffb3" stroke="black" points="293.77,-122 158.23,-122 158.23,-86 293.77,-86 293.77,-122"/>
<text text-anchor="middle" x="226" y="-99.8" font-family="Times,serif" font-size="14.00">DrinkListComponent</text>
</g>
<!-- TrackingModule -->
<g id="node3" class="node">
<title>TrackingModule</title>
<polygon fill="#8dd3c7" stroke="black" points="366.08,-187 363.08,-191 342.08,-191 339.08,-187 255.92,-187 255.92,-151 366.08,-151 366.08,-187"/>
<text text-anchor="middle" x="311" y="-164.8" font-family="Times,serif" font-size="14.00">TrackingModule</text>
</g>
<!-- DrinkListComponent&#45;&gt;TrackingModule -->
<g id="edge1" class="edge">
<title>DrinkListComponent&#45;&gt;TrackingModule</title>
<path fill="none" stroke="black" d="M274.92,-122.11C274.92,-122.11 274.92,-140.99 274.92,-140.99"/>
<polygon fill="black" stroke="black" points="271.42,-140.99 274.92,-150.99 278.42,-140.99 271.42,-140.99"/>
</g>
<!-- HomeComponent -->
<g id="node2" class="node">
<title>HomeComponent</title>
<polygon fill="#ffffb3" stroke="black" points="139.55,-122 24.45,-122 24.45,-86 139.55,-86 139.55,-122"/>
<text text-anchor="middle" x="82" y="-99.8" font-family="Times,serif" font-size="14.00">HomeComponent</text>
</g>
<!-- HomeComponent&#45;&gt;TrackingModule -->
<g id="edge2" class="edge">
<title>HomeComponent&#45;&gt;TrackingModule</title>
<path fill="none" stroke="black" d="M82,-122.11C82,-141.34 82,-169 82,-169 82,-169 245.86,-169 245.86,-169"/>
<polygon fill="black" stroke="black" points="245.86,-172.5 255.86,-169 245.86,-165.5 245.86,-172.5"/>
</g>
<!-- SharedModule -->
<g id="node4" class="node">
<title>SharedModule</title>
<polygon fill="#8dd3c7" stroke="black" points="590.42,-122 587.42,-126 566.42,-126 563.42,-122 491.58,-122 491.58,-86 590.42,-86 590.42,-122"/>
<text text-anchor="middle" x="541" y="-99.8" font-family="Times,serif" font-size="14.00">SharedModule</text>
</g>
<!-- SharedModule&#45;&gt;TrackingModule -->
<g id="edge3" class="edge">
<title>SharedModule&#45;&gt;TrackingModule</title>
<path fill="none" stroke="black" d="M541,-122.11C541,-141.34 541,-169 541,-169 541,-169 376.09,-169 376.09,-169"/>
<polygon fill="black" stroke="black" points="376.09,-165.5 366.09,-169 376.09,-172.5 376.09,-165.5"/>
</g>
<!-- TrackingRoutingModule -->
<g id="node5" class="node">
<title>TrackingRoutingModule</title>
<polygon fill="#8dd3c7" stroke="black" points="473.7,-122 470.7,-126 449.7,-126 446.7,-122 318.3,-122 318.3,-86 473.7,-86 473.7,-122"/>
<text text-anchor="middle" x="396" y="-99.8" font-family="Times,serif" font-size="14.00">TrackingRoutingModule</text>
</g>
<!-- TrackingRoutingModule&#45;&gt;TrackingModule -->
<g id="edge4" class="edge">
<title>TrackingRoutingModule&#45;&gt;TrackingModule</title>
<path fill="none" stroke="black" d="M342.22,-122.11C342.22,-122.11 342.22,-140.99 342.22,-140.99"/>
<polygon fill="black" stroke="black" points="338.72,-140.99 342.22,-150.99 345.72,-140.99 338.72,-140.99"/>
</g>
</g>
</svg>
