<?xml version="1.0" encoding="UTF-8" standalone="no"?>
<!DOCTYPE svg PUBLIC "-//W3C//DTD SVG 1.1//EN"
 "http://www.w3.org/Graphics/SVG/1.1/DTD/svg11.dtd">
<!-- Generated by graphviz version 2.47.0 (20210316.0004)
 -->
<!-- Title: dependencies Pages: 1 -->
<svg width="622pt" height="211pt"
 viewBox="0.00 0.00 622.00 211.00" xmlns="http://www.w3.org/2000/svg" xmlns:xlink="http://www.w3.org/1999/xlink">
<g id="graph0" class="graph" transform="scale(1 1) rotate(0) translate(4 207)">
<title>dependencies</title>
<polygon fill="white" stroke="transparent" points="-4,4 -4,-207 618,-207 618,4 -4,4"/>
<text text-anchor="start" x="286.01" y="-42.4" font-family="Times-12" font-weight="bold" font-size="14.00">Legend</text>
<polygon fill="#ffffb3" stroke="transparent" points="73,-10 73,-30 93,-30 93,-10 73,-10"/>
<text text-anchor="start" x="96.63" y="-15.4" font-family="Times-12" font-size="14.00"> &#160;Declarations</text>
<polygon fill="#8dd3c7" stroke="transparent" points="186,-10 186,-30 206,-30 206,-10 186,-10"/>
<text text-anchor="start" x="209.73" y="-15.4" font-family="Times-12" font-size="14.00"> &#160;Module</text>
<polygon fill="#80b1d3" stroke="transparent" points="272,-10 272,-30 292,-30 292,-10 272,-10"/>
<text text-anchor="start" x="295.78" y="-15.4" font-family="Times-12" font-size="14.00"> &#160;Bootstrap</text>
<polygon fill="#fdb462" stroke="transparent" points="369,-10 369,-30 389,-30 389,-10 369,-10"/>
<text text-anchor="start" x="392.67" y="-15.4" font-family="Times-12" font-size="14.00"> &#160;Providers</text>
<polygon fill="#fb8072" stroke="transparent" points="465,-10 465,-30 485,-30 485,-10 465,-10"/>
<text text-anchor="start" x="488.73" y="-15.4" font-family="Times-12" font-size="14.00"> &#160;Exports</text>
<g id="clust1" class="cluster">
<title>cluster_TrackingModule</title>
<polygon fill="none" stroke="black" stroke-dasharray="1,5" points="8,-70 8,-195 606,-195 606,-70 8,-70"/>
</g>
<g id="clust2" class="cluster">
<title>cluster_TrackingModule_declarations</title>
<polygon fill="none" stroke="black" points="312,-78 312,-130 598,-130 598,-78 312,-78"/>
</g>
<g id="clust5" class="cluster">
<title>cluster_TrackingModule_imports</title>
<polygon fill="none" stroke="black" points="16,-78 16,-130 304,-130 304,-78 16,-78"/>
</g>
<!-- DrinkListComponent -->
<g id="node1" class="node">
<title>DrinkListComponent</title>
<polygon fill="#ffffb3" stroke="black" points="589.77,-122 454.23,-122 454.23,-86 589.77,-86 589.77,-122"/>
<text text-anchor="middle" x="522" y="-99.8" font-family="Times,serif" font-size="14.00">DrinkListComponent</text>
</g>
<!-- TrackingModule -->
<g id="node3" class="node">
<title>TrackingModule</title>
<polygon fill="#8dd3c7" stroke="black" points="367.08,-187 364.08,-191 343.08,-191 340.08,-187 256.92,-187 256.92,-151 367.08,-151 367.08,-187"/>
<text text-anchor="middle" x="312" y="-164.8" font-family="Times,serif" font-size="14.00">TrackingModule</text>
</g>
<!-- DrinkListComponent&#45;&gt;TrackingModule -->
<g id="edge1" class="edge">
<title>DrinkListComponent&#45;&gt;TrackingModule</title>
<path fill="none" stroke="black" d="M522,-122.11C522,-141.34 522,-169 522,-169 522,-169 377.18,-169 377.18,-169"/>
<polygon fill="black" stroke="black" points="377.18,-165.5 367.18,-169 377.17,-172.5 377.18,-165.5"/>
</g>
<!-- HomeComponent -->
<g id="node2" class="node">
<title>HomeComponent</title>
<polygon fill="#ffffb3" stroke="black" points="435.55,-122 320.45,-122 320.45,-86 435.55,-86 435.55,-122"/>
<text text-anchor="middle" x="378" y="-99.8" font-family="Times,serif" font-size="14.00">HomeComponent</text>
</g>
<!-- HomeComponent&#45;&gt;TrackingModule -->
<g id="edge2" class="edge">
<title>HomeComponent&#45;&gt;TrackingModule</title>
<path fill="none" stroke="black" d="M343.63,-122.11C343.63,-122.11 343.63,-140.99 343.63,-140.99"/>
<polygon fill="black" stroke="black" points="340.13,-140.99 343.63,-150.99 347.13,-140.99 340.13,-140.99"/>
</g>
<!-- SharedModule -->
<g id="node4" class="node">
<title>SharedModule</title>
<polygon fill="#8dd3c7" stroke="black" points="296.42,-122 293.42,-126 272.42,-126 269.42,-122 197.58,-122 197.58,-86 296.42,-86 296.42,-122"/>
<text text-anchor="middle" x="247" y="-99.8" font-family="Times,serif" font-size="14.00">SharedModule</text>
</g>
<!-- SharedModule&#45;&gt;TrackingModule -->
<g id="edge3" class="edge">
<title>SharedModule&#45;&gt;TrackingModule</title>
<path fill="none" stroke="black" d="M276.58,-122.11C276.58,-122.11 276.58,-140.99 276.58,-140.99"/>
<polygon fill="black" stroke="black" points="273.08,-140.99 276.58,-150.99 280.08,-140.99 273.08,-140.99"/>
</g>
<!-- TrackingRoutingModule -->
<g id="node5" class="node">
<title>TrackingRoutingModule</title>
<polygon fill="#8dd3c7" stroke="black" points="179.7,-122 176.7,-126 155.7,-126 152.7,-122 24.3,-122 24.3,-86 179.7,-86 179.7,-122"/>
<text text-anchor="middle" x="102" y="-99.8" font-family="Times,serif" font-size="14.00">TrackingRoutingModule</text>
</g>
<!-- TrackingRoutingModule&#45;&gt;TrackingModule -->
<g id="edge4" class="edge">
<title>TrackingRoutingModule&#45;&gt;TrackingModule</title>
<path fill="none" stroke="black" d="M102,-122.11C102,-141.34 102,-169 102,-169 102,-169 246.82,-169 246.82,-169"/>
<polygon fill="black" stroke="black" points="246.83,-172.5 256.82,-169 246.82,-165.5 246.83,-172.5"/>
</g>
</g>
</svg>
