<?xml version="1.0" encoding="UTF-8" standalone="no"?>
<!DOCTYPE svg PUBLIC "-//W3C//DTD SVG 1.1//EN"
 "http://www.w3.org/Graphics/SVG/1.1/DTD/svg11.dtd">
<!-- Generated by graphviz version 2.47.0 (20210316.0004)
 -->
<!-- Title: dependencies Pages: 1 -->
<svg width="4995pt" height="352pt"
 viewBox="0.00 0.00 4995.00 352.00" xmlns="http://www.w3.org/2000/svg" xmlns:xlink="http://www.w3.org/1999/xlink">
<g id="graph0" class="graph" transform="scale(1 1) rotate(0) translate(4 348)">
<title>dependencies</title>
<polygon fill="white" stroke="transparent" points="-4,4 -4,-348 4991,-348 4991,4 -4,4"/>
<text text-anchor="start" x="2472.51" y="-42.4" font-family="Times-12" font-weight="bold" font-size="14.00">Legend</text>
<polygon fill="#ffffb3" stroke="transparent" points="2259.5,-10 2259.5,-30 2279.5,-30 2279.5,-10 2259.5,-10"/>
<text text-anchor="start" x="2283.13" y="-15.4" font-family="Times-12" font-size="14.00"> &#160;Declarations</text>
<polygon fill="#8dd3c7" stroke="transparent" points="2372.5,-10 2372.5,-30 2392.5,-30 2392.5,-10 2372.5,-10"/>
<text text-anchor="start" x="2396.23" y="-15.4" font-family="Times-12" font-size="14.00"> &#160;Module</text>
<polygon fill="#80b1d3" stroke="transparent" points="2458.5,-10 2458.5,-30 2478.5,-30 2478.5,-10 2458.5,-10"/>
<text text-anchor="start" x="2482.28" y="-15.4" font-family="Times-12" font-size="14.00"> &#160;Bootstrap</text>
<polygon fill="#fdb462" stroke="transparent" points="2555.5,-10 2555.5,-30 2575.5,-30 2575.5,-10 2555.5,-10"/>
<text text-anchor="start" x="2579.17" y="-15.4" font-family="Times-12" font-size="14.00"> &#160;Providers</text>
<polygon fill="#fb8072" stroke="transparent" points="2651.5,-10 2651.5,-30 2671.5,-30 2671.5,-10 2651.5,-10"/>
<text text-anchor="start" x="2675.23" y="-15.4" font-family="Times-12" font-size="14.00"> &#160;Exports</text>
<g id="clust1" class="cluster">
<title>cluster_AdminModule</title>
<polygon fill="none" stroke="black" stroke-dasharray="1,5" points="8,-70 8,-198 640,-198 640,-70 8,-70"/>
</g>
<g id="clust2" class="cluster">
<title>cluster_AdminModule_declarations</title>
<polygon fill="none" stroke="black" points="16,-78 16,-130 348,-130 348,-78 16,-78"/>
</g>
<g id="clust5" class="cluster">
<title>cluster_AdminModule_imports</title>
<polygon fill="none" stroke="black" points="356,-78 356,-130 632,-130 632,-78 356,-78"/>
</g>
<g id="clust15" class="cluster">
<title>cluster_AppModule</title>
<polygon fill="none" stroke="black" stroke-dasharray="1,5" points="648,-138 648,-336 2051,-336 2051,-138 648,-138"/>
</g>
<g id="clust16" class="cluster">
<title>cluster_AppModule_declarations</title>
<polygon fill="none" stroke="black" points="1921,-146 1921,-198 2043,-198 2043,-146 1921,-146"/>
</g>
<g id="clust18" class="cluster">
<title>cluster_AppModule_imports</title>
<polygon fill="none" stroke="black" points="656,-146 656,-198 1913,-198 1913,-146 656,-146"/>
</g>
<g id="clust20" class="cluster">
<title>cluster_AppModule_bootstrap</title>
<polygon fill="none" stroke="black" points="1340,-276 1340,-328 1464,-328 1464,-276 1340,-276"/>
</g>
<g id="clust28" class="cluster">
<title>cluster_AuthModule</title>
<polygon fill="none" stroke="black" stroke-dasharray="1,5" points="2720,-70 2720,-198 3168,-198 3168,-70 2720,-70"/>
</g>
<g id="clust29" class="cluster">
<title>cluster_AuthModule_declarations</title>
<polygon fill="none" stroke="black" points="2884,-78 2884,-130 3160,-130 3160,-78 2884,-78"/>
</g>
<g id="clust32" class="cluster">
<title>cluster_AuthModule_imports</title>
<polygon fill="none" stroke="black" points="2728,-78 2728,-130 2876,-130 2876,-78 2728,-78"/>
</g>
<g id="clust48" class="cluster">
<title>cluster_PagesModule</title>
<polygon fill="none" stroke="black" stroke-dasharray="1,5" points="3176,-70 3176,-198 3859,-198 3859,-70 3176,-70"/>
</g>
<g id="clust49" class="cluster">
<title>cluster_PagesModule_declarations</title>
<polygon fill="none" stroke="black" points="3346,-78 3346,-130 3851,-130 3851,-78 3346,-78"/>
</g>
<g id="clust53" class="cluster">
<title>cluster_PagesModule_imports</title>
<polygon fill="none" stroke="black" points="3184,-78 3184,-130 3338,-130 3338,-78 3184,-78"/>
</g>
<g id="clust63" class="cluster">
<title>cluster_ProfileModule</title>
<polygon fill="none" stroke="black" stroke-dasharray="1,5" points="3867,-70 3867,-198 4489,-198 4489,-70 3867,-70"/>
</g>
<g id="clust64" class="cluster">
<title>cluster_ProfileModule_declarations</title>
<polygon fill="none" stroke="black" points="4041,-78 4041,-130 4481,-130 4481,-78 4041,-78"/>
</g>
<g id="clust68" class="cluster">
<title>cluster_ProfileModule_imports</title>
<polygon fill="none" stroke="black" points="3875,-78 3875,-130 4033,-130 4033,-78 3875,-78"/>
</g>
<g id="clust78" class="cluster">
<title>cluster_SharedModule</title>
<polygon fill="none" stroke="black" stroke-dasharray="1,5" points="2081,-138 2081,-206 2712,-206 2712,-138 2081,-138"/>
</g>
<g id="clust79" class="cluster">
<title>cluster_SharedModule_declarations</title>
<polygon fill="none" stroke="black" points="2404,-146 2404,-198 2704,-198 2704,-146 2404,-146"/>
</g>
<g id="clust83" class="cluster">
<title>cluster_SharedModule_exports</title>
<polygon fill="none" stroke="black" points="2089,-146 2089,-198 2396,-198 2396,-146 2089,-146"/>
</g>
<g id="clust86" class="cluster">
<title>cluster_TrackingModule</title>
<polygon fill="none" stroke="black" stroke-dasharray="1,5" points="4497,-70 4497,-198 4979,-198 4979,-70 4497,-70"/>
</g>
<g id="clust87" class="cluster">
<title>cluster_TrackingModule_declarations</title>
<polygon fill="none" stroke="black" points="4685,-78 4685,-130 4971,-130 4971,-78 4685,-78"/>
</g>
<g id="clust90" class="cluster">
<title>cluster_TrackingModule_imports</title>
<polygon fill="none" stroke="black" points="4505,-78 4505,-130 4677,-130 4677,-78 4505,-78"/>
</g>
<!-- AdminFormComponent -->
<g id="node1" class="node">
<title>AdminFormComponent</title>
<polygon fill="#ffffb3" stroke="black" points="340.05,-122 189.95,-122 189.95,-86 340.05,-86 340.05,-122"/>
<text text-anchor="middle" x="265" y="-99.8" font-family="Times,serif" font-size="14.00">AdminFormComponent</text>
</g>
<!-- AdminModule -->
<g id="node3" class="node">
<title>AdminModule</title>
<polygon fill="#8dd3c7" stroke="black" points="399.44,-190 396.44,-194 375.44,-194 372.44,-190 300.56,-190 300.56,-154 399.44,-154 399.44,-190"/>
<text text-anchor="middle" x="350" y="-167.8" font-family="Times,serif" font-size="14.00">AdminModule</text>
</g>
<!-- AdminFormComponent&#45;&gt;AdminModule -->
<g id="edge1" class="edge">
<title>AdminFormComponent&#45;&gt;AdminModule</title>
<path fill="none" stroke="black" d="M320.53,-122.22C320.53,-122.22 320.53,-143.73 320.53,-143.73"/>
<polygon fill="black" stroke="black" points="317.03,-143.73 320.53,-153.73 324.03,-143.73 317.03,-143.73"/>
</g>
<!-- AdminPageComponent -->
<g id="node2" class="node">
<title>AdminPageComponent</title>
<polygon fill="#ffffb3" stroke="black" points="171.93,-122 24.07,-122 24.07,-86 171.93,-86 171.93,-122"/>
<text text-anchor="middle" x="98" y="-99.8" font-family="Times,serif" font-size="14.00">AdminPageComponent</text>
</g>
<!-- AdminPageComponent&#45;&gt;AdminModule -->
<g id="edge2" class="edge">
<title>AdminPageComponent&#45;&gt;AdminModule</title>
<path fill="none" stroke="black" d="M98,-122.22C98,-142.37 98,-172 98,-172 98,-172 290.51,-172 290.51,-172"/>
<polygon fill="black" stroke="black" points="290.51,-175.5 300.51,-172 290.51,-168.5 290.51,-175.5"/>
</g>
<!-- AdminRoutingModule -->
<g id="node4" class="node">
<title>AdminRoutingModule</title>
<polygon fill="#8dd3c7" stroke="black" points="507.56,-122 504.56,-126 483.56,-126 480.56,-122 364.44,-122 364.44,-86 507.56,-86 507.56,-122"/>
<text text-anchor="middle" x="436" y="-99.8" font-family="Times,serif" font-size="14.00">AdminRoutingModule</text>
</g>
<!-- AdminRoutingModule&#45;&gt;AdminModule -->
<g id="edge3" class="edge">
<title>AdminRoutingModule&#45;&gt;AdminModule</title>
<path fill="none" stroke="black" d="M381.72,-122.22C381.72,-122.22 381.72,-143.73 381.72,-143.73"/>
<polygon fill="black" stroke="black" points="378.22,-143.73 381.72,-153.73 385.22,-143.73 378.22,-143.73"/>
</g>
<!-- SharedModule -->
<g id="node5" class="node">
<title>SharedModule</title>
<polygon fill="#8dd3c7" stroke="black" points="624.42,-122 621.42,-126 600.42,-126 597.42,-122 525.58,-122 525.58,-86 624.42,-86 624.42,-122"/>
<text text-anchor="middle" x="575" y="-99.8" font-family="Times,serif" font-size="14.00">SharedModule</text>
</g>
<!-- SharedModule&#45;&gt;AdminModule -->
<g id="edge4" class="edge">
<title>SharedModule&#45;&gt;AdminModule</title>
<path fill="none" stroke="black" d="M604.53,-122.22C604.53,-142.37 604.53,-172 604.53,-172 604.53,-172 409.38,-172 409.38,-172"/>
<polygon fill="black" stroke="black" points="409.38,-168.5 399.38,-172 409.38,-175.5 409.38,-168.5"/>
</g>
<!-- AppModule -->
<g id="node7" class="node">
<title>AppModule</title>
<polygon fill="#8dd3c7" stroke="black" points="1443.66,-255 1440.66,-259 1419.66,-259 1416.66,-255 1360.34,-255 1360.34,-219 1443.66,-219 1443.66,-255"/>
<text text-anchor="middle" x="1402" y="-232.8" font-family="Times,serif" font-size="14.00">AppModule</text>
</g>
<!-- SharedModule&#45;&gt;AppModule -->
<g id="edge8" class="edge">
<title>SharedModule&#45;&gt;AppModule</title>
<path fill="none" stroke="black" d="M624.45,-113C799.63,-113 1380.14,-113 1380.14,-113 1380.14,-113 1380.14,-208.97 1380.14,-208.97"/>
<polygon fill="black" stroke="black" points="1376.64,-208.97 1380.14,-218.97 1383.64,-208.97 1376.64,-208.97"/>
</g>
<!-- CoreModule -->
<g id="node9" class="node">
<title>CoreModule</title>
<polygon fill="#8dd3c7" stroke="black" points="750.26,-190 747.26,-194 726.26,-194 723.26,-190 663.74,-190 663.74,-154 750.26,-154 750.26,-190"/>
<text text-anchor="middle" x="707" y="-167.8" font-family="Times,serif" font-size="14.00">CoreModule</text>
</g>
<!-- SharedModule&#45;&gt;CoreModule -->
<g id="edge18" class="edge">
<title>SharedModule&#45;&gt;CoreModule</title>
<path fill="none" stroke="black" d="M624.53,-118C661.98,-118 707,-118 707,-118 707,-118 707,-143.72 707,-143.72"/>
<polygon fill="black" stroke="black" points="703.5,-143.72 707,-153.72 710.5,-143.72 703.5,-143.72"/>
</g>
<!-- AuthModule -->
<g id="node17" class="node">
<title>AuthModule</title>
<polygon fill="#8dd3c7" stroke="black" points="2922.55,-190 2919.55,-194 2898.55,-194 2895.55,-190 2835.45,-190 2835.45,-154 2922.55,-154 2922.55,-190"/>
<text text-anchor="middle" x="2879" y="-167.8" font-family="Times,serif" font-size="14.00">AuthModule</text>
</g>
<!-- SharedModule&#45;&gt;AuthModule -->
<g id="edge17" class="edge">
<title>SharedModule&#45;&gt;AuthModule</title>
<path fill="none" stroke="black" d="M624.25,-91C944.29,-91 2715.77,-91 2715.77,-91 2715.77,-91 2715.77,-172 2715.77,-172 2715.77,-172 2825.26,-172 2825.26,-172"/>
<polygon fill="black" stroke="black" points="2825.26,-175.5 2835.26,-172 2825.26,-168.5 2825.26,-175.5"/>
</g>
<!-- PagesModule -->
<g id="node22" class="node">
<title>PagesModule</title>
<polygon fill="#8dd3c7" stroke="black" points="3483.21,-190 3480.21,-194 3459.21,-194 3456.21,-190 3390.79,-190 3390.79,-154 3483.21,-154 3483.21,-190"/>
<text text-anchor="middle" x="3437" y="-167.8" font-family="Times,serif" font-size="14.00">PagesModule</text>
</g>
<!-- SharedModule&#45;&gt;PagesModule -->
<g id="edge23" class="edge">
<title>SharedModule&#45;&gt;PagesModule</title>
<path fill="none" stroke="black" d="M545.47,-122.06C545.47,-133.44 545.47,-146 545.47,-146 545.47,-146 3421.63,-146 3421.63,-146 3421.63,-146 3421.63,-146.79 3421.63,-146.79"/>
<polygon fill="black" stroke="black" points="3418.13,-143.94 3421.63,-153.94 3425.13,-143.94 3418.13,-143.94"/>
</g>
<!-- ProfileModule -->
<g id="node27" class="node">
<title>ProfileModule</title>
<polygon fill="#8dd3c7" stroke="black" points="4177.65,-190 4174.65,-194 4153.65,-194 4150.65,-190 4080.35,-190 4080.35,-154 4177.65,-154 4177.65,-190"/>
<text text-anchor="middle" x="4129" y="-167.8" font-family="Times,serif" font-size="14.00">ProfileModule</text>
</g>
<!-- SharedModule&#45;&gt;ProfileModule -->
<g id="edge28" class="edge">
<title>SharedModule&#45;&gt;ProfileModule</title>
<path fill="none" stroke="black" d="M565.16,-122.19C565.16,-130.28 565.16,-138 565.16,-138 565.16,-138 4112.73,-138 4112.73,-138 4112.73,-138 4112.73,-143.81 4112.73,-143.81"/>
<polygon fill="black" stroke="black" points="4109.23,-143.81 4112.73,-153.81 4116.23,-143.81 4109.23,-143.81"/>
</g>
<!-- NavigationComponent  -->
<g id="node31" class="node">
<title>NavigationComponent </title>
<polygon fill="#fb8072" stroke="black" points="2244.54,-190 2097.46,-190 2097.46,-154 2244.54,-154 2244.54,-190"/>
<text text-anchor="middle" x="2171" y="-167.8" font-family="Times,serif" font-size="14.00">NavigationComponent </text>
</g>
<!-- SharedModule&#45;&gt;NavigationComponent  -->
<g id="edge31" class="edge">
<title>SharedModule&#45;&gt;NavigationComponent </title>
<path fill="none" stroke="black" stroke-dasharray="5,2" d="M624.52,-109C893.9,-109 2171,-109 2171,-109 2171,-109 2171,-143.78 2171,-143.78"/>
<polygon fill="black" stroke="black" points="2167.5,-143.78 2171,-153.78 2174.5,-143.78 2167.5,-143.78"/>
</g>
<!-- TrimDecimalsPipe  -->
<g id="node32" class="node">
<title>TrimDecimalsPipe </title>
<polygon fill="#fb8072" stroke="black" points="2387.75,-190 2262.25,-190 2262.25,-154 2387.75,-154 2387.75,-190"/>
<text text-anchor="middle" x="2325" y="-167.8" font-family="Times,serif" font-size="14.00">TrimDecimalsPipe </text>
</g>
<!-- SharedModule&#45;&gt;TrimDecimalsPipe  -->
<g id="edge32" class="edge">
<title>SharedModule&#45;&gt;TrimDecimalsPipe </title>
<path fill="none" stroke="black" stroke-dasharray="5,2" d="M624.56,-104C909.35,-104 2325,-104 2325,-104 2325,-104 2325,-143.78 2325,-143.78"/>
<polygon fill="black" stroke="black" points="2321.5,-143.78 2325,-153.78 2328.5,-143.78 2321.5,-143.78"/>
</g>
<!-- TrackingModule -->
<g id="node35" class="node">
<title>TrackingModule</title>
<polygon fill="#8dd3c7" stroke="black" points="4726.08,-190 4723.08,-194 4702.08,-194 4699.08,-190 4615.92,-190 4615.92,-154 4726.08,-154 4726.08,-190"/>
<text text-anchor="middle" x="4671" y="-167.8" font-family="Times,serif" font-size="14.00">TrackingModule</text>
</g>
<!-- SharedModule&#45;&gt;TrackingModule -->
<g id="edge35" class="edge">
<title>SharedModule&#45;&gt;TrackingModule</title>
<path fill="none" stroke="black" d="M584.84,-122.06C584.84,-126.49 584.84,-130 584.84,-130 584.84,-130 4633.51,-130 4633.51,-130 4633.51,-130 4633.51,-143.94 4633.51,-143.94"/>
<polygon fill="black" stroke="black" points="4630.01,-143.94 4633.51,-153.94 4637.01,-143.94 4630.01,-143.94"/>
</g>
<!-- AppComponent -->
<g id="node6" class="node">
<title>AppComponent</title>
<polygon fill="#ffffb3" stroke="black" points="2034.94,-190 1929.06,-190 1929.06,-154 2034.94,-154 2034.94,-190"/>
<text text-anchor="middle" x="1982" y="-167.8" font-family="Times,serif" font-size="14.00">AppComponent</text>
</g>
<!-- AppComponent&#45;&gt;AppModule -->
<g id="edge5" class="edge">
<title>AppComponent&#45;&gt;AppModule</title>
<path fill="none" stroke="black" d="M1982,-190.28C1982,-211.32 1982,-243 1982,-243 1982,-243 1453.71,-243 1453.71,-243"/>
<polygon fill="black" stroke="black" points="1453.71,-239.5 1443.71,-243 1453.71,-246.5 1453.71,-239.5"/>
</g>
<!-- AppComponent  -->
<g id="node14" class="node">
<title>AppComponent </title>
<polygon fill="#80b1d3" stroke="black" points="1456.44,-320 1347.56,-320 1347.56,-284 1456.44,-284 1456.44,-320"/>
<text text-anchor="middle" x="1402" y="-297.8" font-family="Times,serif" font-size="14.00">AppComponent </text>
</g>
<!-- AppModule&#45;&gt;AppComponent  -->
<g id="edge13" class="edge">
<title>AppModule&#45;&gt;AppComponent </title>
<path fill="none" stroke="black" stroke-dasharray="1,5" d="M1402,-255.11C1402,-255.11 1402,-273.99 1402,-273.99"/>
<polygon fill="black" stroke="black" points="1398.5,-273.99 1402,-283.99 1405.5,-273.99 1398.5,-273.99"/>
</g>
<!-- AppRoutingModule -->
<g id="node8" class="node">
<title>AppRoutingModule</title>
<polygon fill="#8dd3c7" stroke="black" points="897.27,-190 894.27,-194 873.27,-194 870.27,-190 768.73,-190 768.73,-154 897.27,-154 897.27,-190"/>
<text text-anchor="middle" x="833" y="-167.8" font-family="Times,serif" font-size="14.00">AppRoutingModule</text>
</g>
<!-- AppRoutingModule&#45;&gt;AppModule -->
<g id="edge6" class="edge">
<title>AppRoutingModule&#45;&gt;AppModule</title>
<path fill="none" stroke="black" d="M833,-190.11C833,-209.34 833,-237 833,-237 833,-237 1350.16,-237 1350.16,-237"/>
<polygon fill="black" stroke="black" points="1350.16,-240.5 1360.16,-237 1350.16,-233.5 1350.16,-240.5"/>
</g>
<!-- CoreModule&#45;&gt;AppModule -->
<g id="edge7" class="edge">
<title>CoreModule&#45;&gt;AppModule</title>
<path fill="none" stroke="black" d="M707,-190.29C707,-212.21 707,-246 707,-246 707,-246 1350.09,-246 1350.09,-246"/>
<polygon fill="black" stroke="black" points="1350.09,-249.5 1360.09,-246 1350.09,-242.5 1350.09,-249.5"/>
</g>
<!-- provideAuth(() =&gt; getAuth()) -->
<g id="node10" class="node">
<title>provideAuth(() =&gt; getAuth())</title>
<polygon fill="#8dd3c7" stroke="black" points="1905.12,-190 1902.12,-194 1881.12,-194 1878.12,-190 1722.88,-190 1722.88,-154 1905.12,-154 1905.12,-190"/>
<text text-anchor="middle" x="1814" y="-167.8" font-family="Times,serif" font-size="14.00">provideAuth(() =&gt; getAuth())</text>
</g>
<!-- provideAuth(() =&gt; getAuth())&#45;&gt;AppModule -->
<g id="edge9" class="edge">
<title>provideAuth(() =&gt; getAuth())&#45;&gt;AppModule</title>
<path fill="none" stroke="black" d="M1814,-190.02C1814,-207.37 1814,-231 1814,-231 1814,-231 1453.77,-231 1453.77,-231"/>
<polygon fill="black" stroke="black" points="1453.77,-227.5 1443.77,-231 1453.77,-234.5 1453.77,-227.5"/>
</g>
<!-- provideFirebaseApp(() =&gt; initializeApp(environment -->
<g id="node11" class="node">
<title>provideFirebaseApp(() =&gt; initializeApp(environment</title>
<polygon fill="#8dd3c7" stroke="black" points="1704.58,-190 1701.58,-194 1680.58,-194 1677.58,-190 1389.42,-190 1389.42,-154 1704.58,-154 1704.58,-190"/>
<text text-anchor="middle" x="1547" y="-167.8" font-family="Times,serif" font-size="14.00">provideFirebaseApp(() =&gt; initializeApp(environment</text>
</g>
<!-- provideFirebaseApp(() =&gt; initializeApp(environment&#45;&gt;AppModule -->
<g id="edge10" class="edge">
<title>provideFirebaseApp(() =&gt; initializeApp(environment&#45;&gt;AppModule</title>
<path fill="none" stroke="black" d="M1416.52,-190.11C1416.52,-190.11 1416.52,-208.99 1416.52,-208.99"/>
<polygon fill="black" stroke="black" points="1413.02,-208.99 1416.52,-218.99 1420.02,-208.99 1413.02,-208.99"/>
</g>
<!-- provideFirestore(() =&gt; getFirestore()) -->
<g id="node12" class="node">
<title>provideFirestore(() =&gt; getFirestore())</title>
<polygon fill="#8dd3c7" stroke="black" points="1371.14,-190 1368.14,-194 1347.14,-194 1344.14,-190 1144.86,-190 1144.86,-154 1371.14,-154 1371.14,-190"/>
<text text-anchor="middle" x="1258" y="-167.8" font-family="Times,serif" font-size="14.00">provideFirestore(() =&gt; getFirestore())</text>
</g>
<!-- provideFirestore(() =&gt; getFirestore())&#45;&gt;AppModule -->
<g id="edge11" class="edge">
<title>provideFirestore(() =&gt; getFirestore())&#45;&gt;AppModule</title>
<path fill="none" stroke="black" d="M1365.62,-190.11C1365.62,-190.11 1365.62,-208.99 1365.62,-208.99"/>
<polygon fill="black" stroke="black" points="1362.12,-208.99 1365.62,-218.99 1369.12,-208.99 1362.12,-208.99"/>
</g>
<!-- provideStorage(() =&gt; getStorage()) -->
<g id="node13" class="node">
<title>provideStorage(() =&gt; getStorage())</title>
<polygon fill="#8dd3c7" stroke="black" points="1127.15,-190 1124.15,-194 1103.15,-194 1100.15,-190 914.85,-190 914.85,-154 1127.15,-154 1127.15,-190"/>
<text text-anchor="middle" x="1021" y="-167.8" font-family="Times,serif" font-size="14.00">provideStorage(() =&gt; getStorage())</text>
</g>
<!-- provideStorage(() =&gt; getStorage())&#45;&gt;AppModule -->
<g id="edge12" class="edge">
<title>provideStorage(() =&gt; getStorage())&#45;&gt;AppModule</title>
<path fill="none" stroke="black" d="M1021,-190.03C1021,-206.4 1021,-228 1021,-228 1021,-228 1350.14,-228 1350.14,-228"/>
<polygon fill="black" stroke="black" points="1350.14,-231.5 1360.14,-228 1350.14,-224.5 1350.14,-231.5"/>
</g>
<!-- LoginComponent -->
<g id="node15" class="node">
<title>LoginComponent</title>
<polygon fill="#ffffb3" stroke="black" points="3152.28,-122 3037.72,-122 3037.72,-86 3152.28,-86 3152.28,-122"/>
<text text-anchor="middle" x="3095" y="-99.8" font-family="Times,serif" font-size="14.00">LoginComponent</text>
</g>
<!-- LoginComponent&#45;&gt;AuthModule -->
<g id="edge14" class="edge">
<title>LoginComponent&#45;&gt;AuthModule</title>
<path fill="none" stroke="black" d="M3095,-122.27C3095,-140.56 3095,-166 3095,-166 3095,-166 2932.71,-166 2932.71,-166"/>
<polygon fill="black" stroke="black" points="2932.71,-162.5 2922.71,-166 2932.71,-169.5 2932.71,-162.5"/>
</g>
<!-- RegisterComponent -->
<g id="node16" class="node">
<title>RegisterComponent</title>
<polygon fill="#ffffb3" stroke="black" points="3019.98,-122 2892.02,-122 2892.02,-86 3019.98,-86 3019.98,-122"/>
<text text-anchor="middle" x="2956" y="-99.8" font-family="Times,serif" font-size="14.00">RegisterComponent</text>
</g>
<!-- RegisterComponent&#45;&gt;AuthModule -->
<g id="edge15" class="edge">
<title>RegisterComponent&#45;&gt;AuthModule</title>
<path fill="none" stroke="black" d="M2907.39,-122.22C2907.39,-122.22 2907.39,-143.73 2907.39,-143.73"/>
<polygon fill="black" stroke="black" points="2903.89,-143.73 2907.39,-153.73 2910.89,-143.73 2903.89,-143.73"/>
</g>
<!-- AuthRoutingModule -->
<g id="node18" class="node">
<title>AuthRoutingModule</title>
<polygon fill="#8dd3c7" stroke="black" points="2868.17,-122 2865.17,-126 2844.17,-126 2841.17,-122 2735.83,-122 2735.83,-86 2868.17,-86 2868.17,-122"/>
<text text-anchor="middle" x="2802" y="-99.8" font-family="Times,serif" font-size="14.00">AuthRoutingModule</text>
</g>
<!-- AuthRoutingModule&#45;&gt;AuthModule -->
<g id="edge16" class="edge">
<title>AuthRoutingModule&#45;&gt;AuthModule</title>
<path fill="none" stroke="black" d="M2851.78,-122.22C2851.78,-122.22 2851.78,-143.73 2851.78,-143.73"/>
<polygon fill="black" stroke="black" points="2848.28,-143.73 2851.78,-153.73 2855.28,-143.73 2848.28,-143.73"/>
</g>
<!-- AboutUsComponent -->
<g id="node19" class="node">
<title>AboutUsComponent</title>
<polygon fill="#ffffb3" stroke="black" points="3842.88,-122 3711.12,-122 3711.12,-86 3842.88,-86 3842.88,-122"/>
<text text-anchor="middle" x="3777" y="-99.8" font-family="Times,serif" font-size="14.00">AboutUsComponent</text>
</g>
<!-- AboutUsComponent&#45;&gt;PagesModule -->
<g id="edge19" class="edge">
<title>AboutUsComponent&#45;&gt;PagesModule</title>
<path fill="none" stroke="black" d="M3777,-122.22C3777,-142.37 3777,-172 3777,-172 3777,-172 3493.21,-172 3493.21,-172"/>
<polygon fill="black" stroke="black" points="3493.21,-168.5 3483.21,-172 3493.21,-175.5 3493.21,-168.5"/>
</g>
<!-- LandingPageComponent -->
<g id="node20" class="node">
<title>LandingPageComponent</title>
<polygon fill="#ffffb3" stroke="black" points="3692.7,-122 3537.3,-122 3537.3,-86 3692.7,-86 3692.7,-122"/>
<text text-anchor="middle" x="3615" y="-99.8" font-family="Times,serif" font-size="14.00">LandingPageComponent</text>
</g>
<!-- LandingPageComponent&#45;&gt;PagesModule -->
<g id="edge20" class="edge">
<title>LandingPageComponent&#45;&gt;PagesModule</title>
<path fill="none" stroke="black" d="M3615,-122.02C3615,-139.37 3615,-163 3615,-163 3615,-163 3493.3,-163 3493.3,-163"/>
<polygon fill="black" stroke="black" points="3493.3,-159.5 3483.3,-163 3493.3,-166.5 3493.3,-159.5"/>
</g>
<!-- PageNotFoundComponent -->
<g id="node21" class="node">
<title>PageNotFoundComponent</title>
<polygon fill="#ffffb3" stroke="black" points="3519.82,-122 3354.18,-122 3354.18,-86 3519.82,-86 3519.82,-122"/>
<text text-anchor="middle" x="3437" y="-99.8" font-family="Times,serif" font-size="14.00">PageNotFoundComponent</text>
</g>
<!-- PageNotFoundComponent&#45;&gt;PagesModule -->
<g id="edge21" class="edge">
<title>PageNotFoundComponent&#45;&gt;PagesModule</title>
<path fill="none" stroke="black" d="M3452.37,-122.22C3452.37,-122.22 3452.37,-143.73 3452.37,-143.73"/>
<polygon fill="black" stroke="black" points="3448.87,-143.73 3452.37,-153.73 3455.87,-143.73 3448.87,-143.73"/>
</g>
<!-- PagesRoutingModule -->
<g id="node23" class="node">
<title>PagesRoutingModule</title>
<polygon fill="#8dd3c7" stroke="black" points="3329.82,-122 3326.82,-126 3305.82,-126 3302.82,-122 3192.18,-122 3192.18,-86 3329.82,-86 3329.82,-122"/>
<text text-anchor="middle" x="3261" y="-99.8" font-family="Times,serif" font-size="14.00">PagesRoutingModule</text>
</g>
<!-- PagesRoutingModule&#45;&gt;PagesModule -->
<g id="edge22" class="edge">
<title>PagesRoutingModule&#45;&gt;PagesModule</title>
<path fill="none" stroke="black" d="M3261,-122.29C3261,-144.21 3261,-178 3261,-178 3261,-178 3380.76,-178 3380.76,-178"/>
<polygon fill="black" stroke="black" points="3380.76,-181.5 3390.76,-178 3380.76,-174.5 3380.76,-181.5"/>
</g>
<!-- ProfileComponent -->
<g id="node24" class="node">
<title>ProfileComponent</title>
<polygon fill="#ffffb3" stroke="black" points="4472.93,-122 4353.07,-122 4353.07,-86 4472.93,-86 4472.93,-122"/>
<text text-anchor="middle" x="4413" y="-99.8" font-family="Times,serif" font-size="14.00">ProfileComponent</text>
</g>
<!-- ProfileComponent&#45;&gt;ProfileModule -->
<g id="edge24" class="edge">
<title>ProfileComponent&#45;&gt;ProfileModule</title>
<path fill="none" stroke="black" d="M4413,-122.29C4413,-144.21 4413,-178 4413,-178 4413,-178 4187.82,-178 4187.82,-178"/>
<polygon fill="black" stroke="black" points="4187.82,-174.5 4177.82,-178 4187.82,-181.5 4187.82,-174.5"/>
</g>
<!-- StatsComponent -->
<g id="node25" class="node">
<title>StatsComponent</title>
<polygon fill="#ffffb3" stroke="black" points="4335.06,-122 4226.94,-122 4226.94,-86 4335.06,-86 4335.06,-122"/>
<text text-anchor="middle" x="4281" y="-99.8" font-family="Times,serif" font-size="14.00">StatsComponent</text>
</g>
<!-- StatsComponent&#45;&gt;ProfileModule -->
<g id="edge25" class="edge">
<title>StatsComponent&#45;&gt;ProfileModule</title>
<path fill="none" stroke="black" d="M4281,-122.27C4281,-140.56 4281,-166 4281,-166 4281,-166 4187.93,-166 4187.93,-166"/>
<polygon fill="black" stroke="black" points="4187.93,-162.5 4177.93,-166 4187.93,-169.5 4187.93,-162.5"/>
</g>
<!-- UpdateProfileComponent -->
<g id="node26" class="node">
<title>UpdateProfileComponent</title>
<polygon fill="#ffffb3" stroke="black" points="4208.86,-122 4049.14,-122 4049.14,-86 4208.86,-86 4208.86,-122"/>
<text text-anchor="middle" x="4129" y="-99.8" font-family="Times,serif" font-size="14.00">UpdateProfileComponent</text>
</g>
<!-- UpdateProfileComponent&#45;&gt;ProfileModule -->
<g id="edge26" class="edge">
<title>UpdateProfileComponent&#45;&gt;ProfileModule</title>
<path fill="none" stroke="black" d="M4145.27,-122.22C4145.27,-122.22 4145.27,-143.73 4145.27,-143.73"/>
<polygon fill="black" stroke="black" points="4141.77,-143.73 4145.27,-153.73 4148.77,-143.73 4141.77,-143.73"/>
</g>
<!-- ProfileRoutingModule -->
<g id="node28" class="node">
<title>ProfileRoutingModule</title>
<polygon fill="#8dd3c7" stroke="black" points="4025.27,-122 4022.27,-126 4001.27,-126 3998.27,-122 3882.73,-122 3882.73,-86 4025.27,-86 4025.27,-122"/>
<text text-anchor="middle" x="3954" y="-99.8" font-family="Times,serif" font-size="14.00">ProfileRoutingModule</text>
</g>
<!-- ProfileRoutingModule&#45;&gt;ProfileModule -->
<g id="edge27" class="edge">
<title>ProfileRoutingModule&#45;&gt;ProfileModule</title>
<path fill="none" stroke="black" d="M3954,-122.25C3954,-145.02 3954,-181 3954,-181 3954,-181 4070.25,-181 4070.25,-181"/>
<polygon fill="black" stroke="black" points="4070.25,-184.5 4080.25,-181 4070.25,-177.5 4070.25,-184.5"/>
</g>
<!-- NavigationComponent -->
<g id="node29" class="node">
<title>NavigationComponent</title>
<polygon fill="#ffffb3" stroke="black" points="2555.54,-190 2412.46,-190 2412.46,-154 2555.54,-154 2555.54,-190"/>
<text text-anchor="middle" x="2484" y="-167.8" font-family="Times,serif" font-size="14.00">NavigationComponent</text>
</g>
<!-- NavigationComponent&#45;&gt;SharedModule -->
<g id="edge29" class="edge">
<title>NavigationComponent&#45;&gt;SharedModule</title>
<path fill="none" stroke="black" d="M2484,-153.83C2484,-132.5 2484,-100 2484,-100 2484,-100 634.59,-100 634.59,-100"/>
<polygon fill="black" stroke="black" points="634.59,-96.5 624.59,-100 634.59,-103.5 634.59,-96.5"/>
</g>
<!-- TrimDecimalsPipe -->
<g id="node30" class="node">
<title>TrimDecimalsPipe</title>
<polygon fill="#ffffb3" stroke="black" points="2695.75,-190 2574.25,-190 2574.25,-154 2695.75,-154 2695.75,-190"/>
<text text-anchor="middle" x="2635" y="-167.8" font-family="Times,serif" font-size="14.00">TrimDecimalsPipe</text>
</g>
<!-- TrimDecimalsPipe&#45;&gt;SharedModule -->
<g id="edge30" class="edge">
<title>TrimDecimalsPipe&#45;&gt;SharedModule</title>
<path fill="none" stroke="black" d="M2635,-153.75C2635,-130.98 2635,-95 2635,-95 2635,-95 634.39,-95 634.39,-95"/>
<polygon fill="black" stroke="black" points="634.39,-91.5 624.39,-95 634.39,-98.5 634.39,-91.5"/>
</g>
<!-- DrinkListComponent -->
<g id="node33" class="node">
<title>DrinkListComponent</title>
<polygon fill="#ffffb3" stroke="black" points="4962.77,-122 4827.23,-122 4827.23,-86 4962.77,-86 4962.77,-122"/>
<text text-anchor="middle" x="4895" y="-99.8" font-family="Times,serif" font-size="14.00">DrinkListComponent</text>
</g>
<!-- DrinkListComponent&#45;&gt;TrackingModule -->
<g id="edge33" class="edge">
<title>DrinkListComponent&#45;&gt;TrackingModule</title>
<path fill="none" stroke="black" d="M4895,-122.22C4895,-142.37 4895,-172 4895,-172 4895,-172 4736.08,-172 4736.08,-172"/>
<polygon fill="black" stroke="black" points="4736.08,-168.5 4726.08,-172 4736.08,-175.5 4736.08,-168.5"/>
</g>
<!-- HomeComponent -->
<g id="node34" class="node">
<title>HomeComponent</title>
<polygon fill="#ffffb3" stroke="black" points="4808.55,-122 4693.45,-122 4693.45,-86 4808.55,-86 4808.55,-122"/>
<text text-anchor="middle" x="4751" y="-99.8" font-family="Times,serif" font-size="14.00">HomeComponent</text>
</g>
<!-- HomeComponent&#45;&gt;TrackingModule -->
<g id="edge34" class="edge">
<title>HomeComponent&#45;&gt;TrackingModule</title>
<path fill="none" stroke="black" d="M4709.63,-122.22C4709.63,-122.22 4709.63,-143.73 4709.63,-143.73"/>
<polygon fill="black" stroke="black" points="4706.13,-143.73 4709.63,-153.73 4713.13,-143.73 4706.13,-143.73"/>
</g>
<!-- TrackingRoutingModule -->
<g id="node36" class="node">
<title>TrackingRoutingModule</title>
<polygon fill="#8dd3c7" stroke="black" points="4668.7,-122 4665.7,-126 4644.7,-126 4641.7,-122 4513.3,-122 4513.3,-86 4668.7,-86 4668.7,-122"/>
<text text-anchor="middle" x="4591" y="-99.8" font-family="Times,serif" font-size="14.00">TrackingRoutingModule</text>
</g>
<!-- TrackingRoutingModule&#45;&gt;TrackingModule -->
<g id="edge36" class="edge">
<title>TrackingRoutingModule&#45;&gt;TrackingModule</title>
<path fill="none" stroke="black" d="M4651.05,-122.22C4651.05,-122.22 4651.05,-143.73 4651.05,-143.73"/>
<polygon fill="black" stroke="black" points="4647.55,-143.73 4651.05,-153.73 4654.55,-143.73 4647.55,-143.73"/>
</g>
</g>
</svg>
